<svg id="svg" version="1.1" width="512" height="512" xmlns="http://www.w3.org/2000/svg" xmlns:xlink="http://www.w3.org/1999/xlink" style="display: block;"><g id="svgg"><path id="path0" d="M175.781 96.094 C 175.781 97.517,175.260 97.656,169.922 97.656 C 164.583 97.656,164.063 97.795,164.063 99.219 C 164.063 100.592,163.542 100.781,159.766 100.781 C 155.990 100.781,155.469 100.971,155.469 102.344 C 155.469 103.609,154.948 103.906,152.734 103.906 C 150.521 103.906,150.000 104.204,150.000 105.469 C 150.000 106.337,149.479 107.031,148.828 107.031 C 148.099 107.031,147.656 107.769,147.656 108.984 C 147.656 110.742,147.344 110.938,144.531 110.938 C 142.274 110.938,141.406 111.263,141.406 112.109 C 141.406 112.760,140.712 113.281,139.844 113.281 C 138.802 113.281,138.281 113.802,138.281 114.844 C 138.281 115.712,137.760 116.406,137.109 116.406 C 136.458 116.406,135.938 117.101,135.938 117.969 C 135.938 119.010,135.417 119.531,134.375 119.531 C 133.044 119.531,132.813 120.052,132.813 123.047 C 132.813 125.651,132.509 126.563,131.641 126.563 C 130.990 126.563,130.469 127.257,130.469 128.125 C 130.469 129.167,129.948 129.688,128.906 129.688 C 127.641 129.688,127.344 130.208,127.344 132.422 C 127.344 134.635,127.046 135.156,125.781 135.156 C 124.379 135.156,124.219 135.677,124.219 140.234 C 124.219 144.227,123.968 145.313,123.047 145.313 C 122.083 145.313,121.875 146.701,121.875 153.125 L 121.875 160.938 119.922 160.938 L 117.969 160.938 117.969 168.750 L 117.969 176.563 119.922 176.563 L 121.875 176.563 121.875 184.375 C 121.875 190.799,122.083 192.188,123.047 192.188 C 123.893 192.188,124.219 193.056,124.219 195.313 C 124.219 197.917,124.479 198.438,125.781 198.438 C 127.083 198.438,127.344 198.958,127.344 201.563 C 127.344 204.167,127.604 204.688,128.906 204.688 C 130.208 204.688,130.469 205.208,130.469 207.813 C 130.469 210.069,130.794 210.938,131.641 210.938 C 132.292 210.938,132.813 211.632,132.813 212.500 C 132.813 213.542,133.333 214.063,134.375 214.063 C 135.417 214.063,135.938 214.583,135.938 215.625 C 135.938 216.493,136.458 217.188,137.109 217.188 C 137.760 217.188,138.281 217.882,138.281 218.750 C 138.281 219.792,138.802 220.313,139.844 220.313 C 140.990 220.313,141.406 220.833,141.406 222.266 C 141.406 223.481,141.849 224.219,142.578 224.219 C 143.223 224.219,143.750 224.746,143.750 225.391 C 143.750 226.120,144.488 226.563,145.703 226.563 C 147.135 226.563,147.656 226.979,147.656 228.125 C 147.656 229.390,148.177 229.688,150.391 229.688 C 152.604 229.688,153.125 229.985,153.125 231.250 C 153.125 232.515,153.646 232.813,155.859 232.813 C 158.073 232.813,158.594 233.110,158.594 234.375 C 158.594 235.799,159.115 235.938,164.453 235.938 C 170.182 235.938,170.313 235.981,170.313 237.891 L 170.313 239.844 183.203 239.844 L 196.094 239.844 196.094 237.891 C 196.094 236.068,196.354 235.938,200.000 235.938 C 203.385 235.938,203.906 235.729,203.906 234.375 C 203.906 233.073,204.427 232.813,207.031 232.813 C 209.635 232.813,210.156 232.552,210.156 231.250 C 210.156 230.382,210.677 229.688,211.328 229.688 C 211.979 229.688,212.500 228.993,212.500 228.125 C 212.500 226.823,213.021 226.563,215.625 226.563 C 217.882 226.563,218.750 226.237,218.750 225.391 C 218.750 224.740,219.444 224.219,220.313 224.219 C 221.458 224.219,221.875 223.698,221.875 222.266 C 221.875 221.050,222.318 220.313,223.047 220.313 C 223.698 220.313,224.219 219.618,224.219 218.750 C 224.219 217.708,224.740 217.188,225.781 217.188 C 227.112 217.188,227.344 217.708,227.344 220.703 C 227.344 223.698,227.112 224.219,225.781 224.219 C 224.296 224.219,224.219 224.740,224.219 234.766 C 224.219 243.620,224.031 245.313,223.047 245.313 C 222.097 245.313,221.875 246.571,221.875 251.953 C 221.875 258.073,221.752 258.594,220.313 258.594 C 219.048 258.594,218.750 259.115,218.750 261.328 C 218.750 263.542,218.452 264.063,217.188 264.063 C 216.146 264.063,215.625 264.583,215.625 265.625 C 215.625 266.667,215.104 267.188,214.063 267.188 C 213.021 267.188,212.500 267.708,212.500 268.750 C 212.500 269.618,211.979 270.313,211.328 270.313 C 210.599 270.313,210.156 271.050,210.156 272.266 C 210.156 274.023,209.844 274.219,207.031 274.219 C 204.427 274.219,203.906 274.479,203.906 275.781 C 203.906 277.228,203.385 277.344,196.875 277.344 C 190.365 277.344,189.844 277.228,189.844 275.781 C 189.844 274.516,189.323 274.219,187.109 274.219 C 184.714 274.219,184.375 273.977,184.375 272.266 C 184.375 270.833,183.958 270.313,182.813 270.313 C 181.510 270.313,181.250 269.792,181.250 267.188 C 181.250 264.931,180.924 264.063,180.078 264.063 C 179.167 264.063,178.906 263.021,178.906 259.375 L 178.906 254.688 173.047 254.688 C 167.318 254.688,167.188 254.731,167.188 256.641 L 167.188 258.594 155.469 258.594 C 144.271 258.594,143.750 258.663,143.750 260.156 C 143.750 261.635,143.229 261.719,133.984 261.719 L 124.219 261.719 124.219 264.453 C 124.219 266.667,124.516 267.188,125.781 267.188 C 127.183 267.188,127.344 267.708,127.344 272.266 C 127.344 276.823,127.504 277.344,128.906 277.344 C 130.171 277.344,130.469 277.865,130.469 280.078 C 130.469 281.988,130.822 282.813,131.641 282.813 C 132.292 282.813,132.813 283.507,132.813 284.375 C 132.813 285.417,133.333 285.938,134.375 285.938 C 135.706 285.938,135.938 286.458,135.938 289.453 C 135.938 292.057,136.241 292.969,137.109 292.969 C 137.760 292.969,138.281 293.663,138.281 294.531 C 138.281 295.573,138.802 296.094,139.844 296.094 C 140.885 296.094,141.406 296.615,141.406 297.656 C 141.406 298.524,141.927 299.219,142.578 299.219 C 143.223 299.219,143.750 299.746,143.750 300.391 C 143.750 301.120,144.488 301.563,145.703 301.563 C 147.266 301.563,147.656 301.953,147.656 303.516 C 147.656 305.227,147.995 305.469,150.391 305.469 C 152.604 305.469,153.125 305.766,153.125 307.031 C 153.125 308.296,153.646 308.594,155.859 308.594 C 158.073 308.594,158.594 308.891,158.594 310.156 C 158.594 311.421,159.115 311.719,161.328 311.719 C 163.542 311.719,164.063 312.016,164.063 313.281 C 164.063 314.705,164.583 314.844,169.922 314.844 C 175.260 314.844,175.781 314.983,175.781 316.406 C 175.781 317.928,176.302 317.969,195.703 317.969 C 215.104 317.969,215.625 317.928,215.625 316.406 C 215.625 314.983,216.146 314.844,221.484 314.844 C 226.823 314.844,227.344 314.705,227.344 313.281 C 227.344 311.927,227.865 311.719,231.250 311.719 C 234.635 311.719,235.156 311.510,235.156 310.156 C 235.156 308.854,235.677 308.594,238.281 308.594 C 240.885 308.594,241.406 308.333,241.406 307.031 C 241.406 305.990,241.927 305.469,242.969 305.469 C 244.115 305.469,244.531 304.948,244.531 303.516 C 244.531 301.804,244.870 301.563,247.266 301.563 C 249.175 301.563,250.000 301.209,250.000 300.391 C 250.000 299.740,250.694 299.219,251.563 299.219 C 252.604 299.219,253.125 298.698,253.125 297.656 C 253.125 296.788,253.646 296.094,254.297 296.094 C 254.948 296.094,255.469 295.399,255.469 294.531 C 255.469 293.490,255.990 292.969,257.031 292.969 C 258.073 292.969,258.594 292.448,258.594 291.406 C 258.594 290.538,259.115 289.844,259.766 289.844 C 260.495 289.844,260.938 289.106,260.938 287.891 C 260.938 286.328,261.328 285.938,262.891 285.938 C 264.602 285.938,264.844 285.599,264.844 283.203 C 264.844 281.293,265.197 280.469,266.016 280.469 C 266.862 280.469,267.188 279.601,267.188 277.344 C 267.188 274.740,267.448 274.219,268.750 274.219 C 270.081 274.219,270.313 273.698,270.313 270.703 C 270.313 268.099,270.616 267.188,271.484 267.188 C 272.303 267.188,272.656 266.363,272.656 264.453 C 272.656 262.240,272.954 261.719,274.219 261.719 C 275.659 261.719,275.781 261.198,275.781 255.078 C 275.781 249.696,276.003 248.438,276.953 248.438 C 277.930 248.438,278.125 246.875,278.125 239.063 C 278.125 230.208,278.212 229.688,279.688 229.688 C 281.215 229.688,281.250 229.167,281.250 206.250 C 281.250 183.333,281.215 182.813,279.688 182.813 C 278.212 182.813,278.125 182.292,278.125 173.438 C 278.125 165.625,277.930 164.063,276.953 164.063 C 276.003 164.063,275.781 162.804,275.781 157.422 C 275.781 151.302,275.659 150.781,274.219 150.781 C 272.954 150.781,272.656 150.260,272.656 148.047 C 272.656 146.137,272.303 145.313,271.484 145.313 C 270.616 145.313,270.313 144.401,270.313 141.797 C 270.313 138.802,270.081 138.281,268.750 138.281 C 267.448 138.281,267.188 137.760,267.188 135.156 C 267.188 132.899,266.862 132.031,266.016 132.031 C 265.197 132.031,264.844 131.207,264.844 129.297 C 264.844 126.901,264.602 126.563,262.891 126.563 C 261.328 126.563,260.938 126.172,260.938 124.609 C 260.938 123.394,260.495 122.656,259.766 122.656 C 259.115 122.656,258.594 121.962,258.594 121.094 C 258.594 120.052,258.073 119.531,257.031 119.531 C 255.990 119.531,255.469 119.010,255.469 117.969 C 255.469 117.101,254.948 116.406,254.297 116.406 C 253.646 116.406,253.125 115.712,253.125 114.844 C 253.125 113.802,252.604 113.281,251.563 113.281 C 250.694 113.281,250.000 112.760,250.000 112.109 C 250.000 111.465,249.473 110.938,248.828 110.938 C 248.099 110.938,247.656 110.200,247.656 108.984 C 247.656 107.227,247.344 107.031,244.531 107.031 C 241.927 107.031,241.406 106.771,241.406 105.469 C 241.406 104.167,240.885 103.906,238.281 103.906 C 235.677 103.906,235.156 103.646,235.156 102.344 C 235.156 100.990,234.635 100.781,231.250 100.781 C 227.865 100.781,227.344 100.573,227.344 99.219 C 227.344 97.795,226.823 97.656,221.484 97.656 C 216.146 97.656,215.625 97.517,215.625 96.094 C 215.625 94.572,215.104 94.531,195.703 94.531 C 176.302 94.531,175.781 94.572,175.781 96.094 M207.031 136.719 C 207.031 137.984,207.552 138.281,209.766 138.281 C 212.161 138.281,212.500 138.523,212.500 140.234 C 212.500 141.667,212.917 142.188,214.063 142.188 C 215.104 142.188,215.625 142.708,215.625 143.750 C 215.625 144.792,216.146 145.313,217.188 145.313 C 218.229 145.313,218.750 145.833,218.750 146.875 C 218.750 147.917,219.271 148.438,220.313 148.438 C 221.577 148.438,221.875 148.958,221.875 151.172 C 221.875 153.082,222.228 153.906,223.047 153.906 C 224.041 153.906,224.219 155.859,224.219 166.797 C 224.219 177.734,224.041 179.688,223.047 179.688 C 222.201 179.688,221.875 180.556,221.875 182.813 C 221.875 185.417,221.615 185.938,220.313 185.938 C 219.444 185.938,218.750 186.458,218.750 187.109 C 218.750 187.760,218.056 188.281,217.188 188.281 C 216.042 188.281,215.625 188.802,215.625 190.234 C 215.625 191.667,215.208 192.188,214.063 192.188 C 213.021 192.188,212.500 192.708,212.500 193.750 C 212.500 195.015,211.979 195.313,209.766 195.313 C 207.552 195.313,207.031 195.610,207.031 196.875 C 207.031 198.357,206.510 198.438,196.875 198.438 C 187.240 198.438,186.719 198.357,186.719 196.875 C 186.719 195.610,186.198 195.313,183.984 195.313 C 181.771 195.313,181.250 195.015,181.250 193.750 C 181.250 192.882,180.729 192.188,180.078 192.188 C 179.349 192.188,178.906 191.450,178.906 190.234 C 178.906 188.802,178.490 188.281,177.344 188.281 C 176.079 188.281,175.781 187.760,175.781 185.547 C 175.781 183.637,175.428 182.813,174.609 182.813 C 173.688 182.813,173.438 181.727,173.438 177.734 C 173.438 173.177,173.277 172.656,171.875 172.656 C 170.451 172.656,170.313 172.135,170.313 166.797 C 170.313 161.458,170.451 160.938,171.875 160.938 C 173.307 160.938,173.438 160.417,173.438 154.688 C 173.438 149.653,173.665 148.438,174.609 148.438 C 175.260 148.438,175.781 147.743,175.781 146.875 C 175.781 145.833,176.302 145.313,177.344 145.313 C 178.385 145.313,178.906 144.792,178.906 143.750 C 178.906 142.882,179.427 142.188,180.078 142.188 C 180.807 142.188,181.250 141.450,181.250 140.234 C 181.250 138.523,181.589 138.281,183.984 138.281 C 186.198 138.281,186.719 137.984,186.719 136.719 C 186.719 135.236,187.240 135.156,196.875 135.156 C 206.510 135.156,207.031 135.236,207.031 136.719 " stroke="none" fill="#000000" fill-rule="evenodd"></path><path id="path1" d="M0.000 200.000 L 0.000 400.000 200.000 400.000 L 400.000 400.000 400.000 200.000 L 400.000 0.000 200.000 0.000 L 0.000 0.000 0.000 200.000 M215.625 96.094 C 215.625 97.517,216.146 97.656,221.484 97.656 C 226.823 97.656,227.344 97.795,227.344 99.219 C 227.344 100.573,227.865 100.781,231.250 100.781 C 234.635 100.781,235.156 100.990,235.156 102.344 C 235.156 103.646,235.677 103.906,238.281 103.906 C 240.885 103.906,241.406 104.167,241.406 105.469 C 241.406 106.771,241.927 107.031,244.531 107.031 C 247.344 107.031,247.656 107.227,247.656 108.984 C 247.656 110.200,248.099 110.938,248.828 110.938 C 249.473 110.938,250.000 111.465,250.000 112.109 C 250.000 112.760,250.694 113.281,251.563 113.281 C 252.604 113.281,253.125 113.802,253.125 114.844 C 253.125 115.712,253.646 116.406,254.297 116.406 C 254.948 116.406,255.469 117.101,255.469 117.969 C 255.469 119.010,255.990 119.531,257.031 119.531 C 258.073 119.531,258.594 120.052,258.594 121.094 C 258.594 121.962,259.115 122.656,259.766 122.656 C 260.495 122.656,260.938 123.394,260.938 124.609 C 260.938 126.172,261.328 126.563,262.891 126.563 C 264.602 126.563,264.844 126.901,264.844 129.297 C 264.844 131.207,265.197 132.031,266.016 132.031 C 266.862 132.031,267.188 132.899,267.188 135.156 C 267.188 137.760,267.448 138.281,268.750 138.281 C 270.081 138.281,270.313 138.802,270.313 141.797 C 270.313 144.401,270.616 145.313,271.484 145.313 C 272.303 145.313,272.656 146.137,272.656 148.047 C 272.656 150.260,272.954 150.781,274.219 150.781 C 275.659 150.781,275.781 151.302,275.781 157.422 C 275.781 162.804,276.003 164.063,276.953 164.063 C 277.930 164.063,278.125 165.625,278.125 173.438 C 278.125 182.292,278.212 182.813,279.688 182.813 C 281.215 182.813,281.250 183.333,281.250 206.250 C 281.250 229.167,281.215 229.688,279.688 229.688 C 278.212 229.688,278.125 230.208,278.125 239.063 C 278.125 246.875,277.930 248.438,276.953 248.438 C 276.003 248.438,275.781 249.696,275.781 255.078 C 275.781 261.198,275.659 261.719,274.219 261.719 C 272.954 261.719,272.656 262.240,272.656 264.453 C 272.656 266.363,272.303 267.188,271.484 267.188 C 270.616 267.188,270.313 268.099,270.313 270.703 C 270.313 273.698,270.081 274.219,268.750 274.219 C 267.448 274.219,267.188 274.740,267.188 277.344 C 267.188 279.601,266.862 280.469,266.016 280.469 C 265.197 280.469,264.844 281.293,264.844 283.203 C 264.844 285.599,264.602 285.938,262.891 285.938 C 261.328 285.938,260.938 286.328,260.938 287.891 C 260.938 289.106,260.495 289.844,259.766 289.844 C 259.115 289.844,258.594 290.538,258.594 291.406 C 258.594 292.448,258.073 292.969,257.031 292.969 C 255.990 292.969,255.469 293.490,255.469 294.531 C 255.469 295.399,254.948 296.094,254.297 296.094 C 253.646 296.094,253.125 296.788,253.125 297.656 C 253.125 298.698,252.604 299.219,251.563 299.219 C 250.694 299.219,250.000 299.740,250.000 300.391 C 250.000 301.209,249.175 301.563,247.266 301.563 C 244.870 301.563,244.531 301.804,244.531 303.516 C 244.531 304.948,244.115 305.469,242.969 305.469 C 241.927 305.469,241.406 305.990,241.406 307.031 C 241.406 308.333,240.885 308.594,238.281 308.594 C 235.677 308.594,235.156 308.854,235.156 310.156 C 235.156 311.510,234.635 311.719,231.250 311.719 C 227.865 311.719,227.344 311.927,227.344 313.281 C 227.344 314.705,226.823 314.844,221.484 314.844 C 216.146 314.844,215.625 314.983,215.625 316.406 C 215.625 317.928,215.104 317.969,195.703 317.969 C 176.302 317.969,175.781 317.928,175.781 316.406 C 175.781 314.983,175.260 314.844,169.922 314.844 C 164.583 314.844,164.063 314.705,164.063 313.281 C 164.063 312.016,163.542 311.719,161.328 311.719 C 159.115 311.719,158.594 311.421,158.594 310.156 C 158.594 308.891,158.073 308.594,155.859 308.594 C 153.646 308.594,153.125 308.296,153.125 307.031 C 153.125 305.766,152.604 305.469,150.391 305.469 C 147.995 305.469,147.656 305.227,147.656 303.516 C 147.656 301.953,147.266 301.563,145.703 301.563 C 144.488 301.563,143.750 301.120,143.750 300.391 C 143.750 299.746,143.223 299.219,142.578 299.219 C 141.927 299.219,141.406 298.524,141.406 297.656 C 141.406 296.615,140.885 296.094,139.844 296.094 C 138.802 296.094,138.281 295.573,138.281 294.531 C 138.281 293.663,137.760 292.969,137.109 292.969 C 136.241 292.969,135.938 292.057,135.938 289.453 C 135.938 286.458,135.706 285.938,134.375 285.938 C 133.333 285.938,132.813 285.417,132.813 284.375 C 132.813 283.507,132.292 282.813,131.641 282.813 C 130.822 282.813,130.469 281.988,130.469 280.078 C 130.469 277.865,130.171 277.344,128.906 277.344 C 127.504 277.344,127.344 276.823,127.344 272.266 C 127.344 267.708,127.183 267.188,125.781 267.188 C 124.516 267.188,124.219 266.667,124.219 264.453 L 124.219 261.719 133.984 261.719 C 143.229 261.719,143.750 261.635,143.750 260.156 C 143.750 258.663,144.271 258.594,155.469 258.594 L 167.188 258.594 167.188 256.641 C 167.188 254.731,167.318 254.688,173.047 254.688 L 178.906 254.688 178.906 259.375 C 178.906 263.021,179.167 264.063,180.078 264.063 C 180.924 264.063,181.250 264.931,181.250 267.188 C 181.250 269.792,181.510 270.313,182.813 270.313 C 183.958 270.313,184.375 270.833,184.375 272.266 C 184.375 273.977,184.714 274.219,187.109 274.219 C 189.323 274.219,189.844 274.516,189.844 275.781 C 189.844 277.228,190.365 277.344,196.875 277.344 C 203.385 277.344,203.906 277.228,203.906 275.781 C 203.906 274.479,204.427 274.219,207.031 274.219 C 209.844 274.219,210.156 274.023,210.156 272.266 C 210.156 271.050,210.599 270.313,211.328 270.313 C 211.979 270.313,212.500 269.618,212.500 268.750 C 212.500 267.708,213.021 267.188,214.063 267.188 C 215.104 267.188,215.625 266.667,215.625 265.625 C 215.625 264.583,216.146 264.063,217.188 264.063 C 218.452 264.063,218.750 263.542,218.750 261.328 C 218.750 259.115,219.048 258.594,220.313 258.594 C 221.752 258.594,221.875 258.073,221.875 251.953 C 221.875 246.571,222.097 245.313,223.047 245.313 C 224.031 245.313,224.219 243.620,224.219 234.766 C 224.219 224.740,224.296 224.219,225.781 224.219 C 227.112 224.219,227.344 223.698,227.344 220.703 C 227.344 217.708,227.112 217.188,225.781 217.188 C 224.740 217.188,224.219 217.708,224.219 218.750 C 224.219 219.618,223.698 220.313,223.047 220.313 C 222.318 220.313,221.875 221.050,221.875 222.266 C 221.875 223.698,221.458 224.219,220.313 224.219 C 219.444 224.219,218.750 224.740,218.750 225.391 C 218.750 226.237,217.882 226.563,215.625 226.563 C 213.021 226.563,212.500 226.823,212.500 228.125 C 212.500 228.993,211.979 229.688,211.328 229.688 C 210.677 229.688,210.156 230.382,210.156 231.250 C 210.156 232.552,209.635 232.813,207.031 232.813 C 204.427 232.813,203.906 233.073,203.906 234.375 C 203.906 235.729,203.385 235.938,200.000 235.938 C 196.354 235.938,196.094 236.068,196.094 237.891 L 196.094 239.844 183.203 239.844 L 170.313 239.844 170.313 237.891 C 170.313 235.981,170.182 235.938,164.453 235.938 C 159.115 235.938,158.594 235.799,158.594 234.375 C 158.594 233.110,158.073 232.813,155.859 232.813 C 153.646 232.813,153.125 232.515,153.125 231.250 C 153.125 229.985,152.604 229.688,150.391 229.688 C 148.177 229.688,147.656 229.390,147.656 228.125 C 147.656 226.979,147.135 226.563,145.703 226.563 C 144.488 226.563,143.750 226.120,143.750 225.391 C 143.750 224.746,143.223 224.219,142.578 224.219 C 141.849 224.219,141.406 223.481,141.406 222.266 C 141.406 220.833,140.990 220.313,139.844 220.313 C 138.802 220.313,138.281 219.792,138.281 218.750 C 138.281 217.882,137.760 217.188,137.109 217.188 C 136.458 217.188,135.938 216.493,135.938 215.625 C 135.938 214.583,135.417 214.063,134.375 214.063 C 133.333 214.063,132.813 213.542,132.813 212.500 C 132.813 211.632,132.292 210.938,131.641 210.938 C 130.794 210.938,130.469 210.069,130.469 207.813 C 130.469 205.208,130.208 204.688,128.906 204.688 C 127.604 204.688,127.344 204.167,127.344 201.563 C 127.344 198.958,127.083 198.438,125.781 198.438 C 124.479 198.438,124.219 197.917,124.219 195.313 C 124.219 193.056,123.893 192.188,123.047 192.188 C 122.083 192.188,121.875 190.799,121.875 184.375 L 121.875 176.563 119.922 176.563 L 117.969 176.563 117.969 168.750 L 117.969 160.938 119.922 160.938 L 121.875 160.938 121.875 153.125 C 121.875 146.701,122.083 145.313,123.047 145.313 C 123.968 145.313,124.219 144.227,124.219 140.234 C 124.219 135.677,124.379 135.156,125.781 135.156 C 127.046 135.156,127.344 134.635,127.344 132.422 C 127.344 130.208,127.641 129.688,128.906 129.688 C 129.948 129.688,130.469 129.167,130.469 128.125 C 130.469 127.257,130.990 126.563,131.641 126.563 C 132.509 126.563,132.813 125.651,132.813 123.047 C 132.813 120.052,133.044 119.531,134.375 119.531 C 135.417 119.531,135.938 119.010,135.938 117.969 C 135.938 117.101,136.458 116.406,137.109 116.406 C 137.760 116.406,138.281 115.712,138.281 114.844 C 138.281 113.802,138.802 113.281,139.844 113.281 C 140.712 113.281,141.406 112.760,141.406 112.109 C 141.406 111.263,142.274 110.938,144.531 110.938 C 147.344 110.938,147.656 110.742,147.656 108.984 C 147.656 107.769,148.099 107.031,148.828 107.031 C 149.479 107.031,150.000 106.337,150.000 105.469 C 150.000 104.204,150.521 103.906,152.734 103.906 C 154.948 103.906,155.469 103.609,155.469 102.344 C 155.469 100.971,155.990 100.781,159.766 100.781 C 163.542 100.781,164.063 100.592,164.063 99.219 C 164.063 97.795,164.583 97.656,169.922 97.656 C 175.260 97.656,175.781 97.517,175.781 96.094 C 175.781 94.572,176.302 94.531,195.703 94.531 C 215.104 94.531,215.625 94.572,215.625 96.094 M186.719 136.719 C 186.719 137.984,186.198 138.281,183.984 138.281 C 181.589 138.281,181.250 138.523,181.250 140.234 C 181.250 141.450,180.807 142.188,180.078 142.188 C 179.427 142.188,178.906 142.882,178.906 143.750 C 178.906 144.792,178.385 145.313,177.344 145.313 C 176.302 145.313,175.781 145.833,175.781 146.875 C 175.781 147.743,175.260 148.438,174.609 148.438 C 173.665 148.438,173.438 149.653,173.438 154.688 C 173.438 160.417,173.307 160.938,171.875 160.938 C 170.451 160.938,170.313 161.458,170.313 166.797 C 170.313 172.135,170.451 172.656,171.875 172.656 C 173.277 172.656,173.438 173.177,173.438 177.734 C 173.438 181.727,173.688 182.813,174.609 182.813 C 175.428 182.813,175.781 183.637,175.781 185.547 C 175.781 187.760,176.079 188.281,177.344 188.281 C 178.490 188.281,178.906 188.802,178.906 190.234 C 178.906 191.450,179.349 192.188,180.078 192.188 C 180.729 192.188,181.250 192.882,181.250 193.750 C 181.250 195.015,181.771 195.313,183.984 195.313 C 186.198 195.313,186.719 195.610,186.719 196.875 C 186.719 198.357,187.240 198.438,196.875 198.438 C 206.510 198.438,207.031 198.357,207.031 196.875 C 207.031 195.610,207.552 195.313,209.766 195.313 C 211.979 195.313,212.500 195.015,212.500 193.750 C 212.500 192.708,213.021 192.188,214.063 192.188 C 215.208 192.188,215.625 191.667,215.625 190.234 C 215.625 188.802,216.042 188.281,217.188 188.281 C 218.056 188.281,218.750 187.760,218.750 187.109 C 218.750 186.458,219.444 185.938,220.313 185.938 C 221.615 185.938,221.875 185.417,221.875 182.813 C 221.875 180.556,222.201 179.688,223.047 179.688 C 224.041 179.688,224.219 177.734,224.219 166.797 C 224.219 155.859,224.041 153.906,223.047 153.906 C 222.228 153.906,221.875 153.082,221.875 151.172 C 221.875 148.958,221.577 148.438,220.313 148.438 C 219.271 148.438,218.750 147.917,218.750 146.875 C 218.750 145.833,218.229 145.313,217.188 145.313 C 216.146 145.313,215.625 144.792,215.625 143.750 C 215.625 142.708,215.104 142.188,214.063 142.188 C 212.917 142.188,212.500 141.667,212.500 140.234 C 212.500 138.523,212.161 138.281,209.766 138.281 C 207.552 138.281,207.031 137.984,207.031 136.719 C 207.031 135.236,206.510 135.156,196.875 135.156 C 187.240 135.156,186.719 135.236,186.719 136.719 " stroke="none" fill="#eeeeee" fill-rule="evenodd"></path></g></svg>