<svg id="svg" version="1.1" width="928" height="917" xmlns="http://www.w3.org/2000/svg" xmlns:xlink="http://www.w3.org/1999/xlink" style="display: block;"><g id="svgg"><path id="path0" d="M26.940 0.498 C 25.991 0.725,24.682 0.837,24.030 0.746 C 23.378 0.655,22.845 0.710,22.845 0.868 C 22.845 1.026,22.020 1.403,21.013 1.707 C 19.186 2.257,16.357 3.470,15.948 3.879 C 15.830 3.998,14.970 4.483,14.037 4.957 C 11.847 6.070,6.070 11.847,4.957 14.037 C 4.483 14.970,3.658 16.456,3.125 17.341 C 2.592 18.225,2.155 19.264,2.155 19.650 C 2.155 20.096,1.920 20.261,1.509 20.103 C 0.825 19.841,0.599 20.476,1.235 20.869 C 1.441 20.996,1.515 21.587,1.402 22.183 C 1.288 22.779,1.071 23.190,0.921 23.096 C 0.386 22.766,0.365 29.170,0.350 197.414 C 0.336 368.520,0.346 371.117,1.012 371.603 C 1.213 371.750,1.407 372.380,1.443 373.004 C 1.479 373.627,1.677 374.137,1.882 374.138 C 2.088 374.138,2.163 374.623,2.050 375.216 C 1.931 375.837,2.046 376.300,2.323 376.310 C 2.586 376.319,3.285 377.337,3.876 378.573 C 4.466 379.808,5.049 380.916,5.171 381.034 C 5.293 381.153,5.912 381.948,6.548 382.801 C 8.233 385.065,13.136 389.655,13.868 389.655 C 14.073 389.655,14.997 390.132,15.921 390.716 C 16.845 391.299,18.117 391.906,18.749 392.064 C 19.381 392.223,19.986 392.584,20.094 392.866 C 20.210 393.168,20.819 393.303,21.568 393.193 C 22.270 393.090,22.845 393.179,22.845 393.392 C 22.845 393.604,23.765 393.818,24.891 393.867 C 26.016 393.916,27.002 394.152,27.082 394.392 C 27.256 394.916,367.672 395.014,367.672 394.490 C 367.672 394.304,369.068 393.894,370.774 393.579 C 372.480 393.263,374.177 392.850,374.546 392.660 C 374.914 392.470,376.758 391.571,378.644 390.663 C 382.471 388.820,388.297 383.456,389.849 380.347 C 390.312 379.421,390.915 378.373,391.189 378.017 C 392.160 376.759,393.966 370.597,393.966 368.539 C 393.966 367.853,394.159 367.172,394.397 367.026 C 395.034 366.632,394.991 26.724,394.353 26.724 C 394.055 26.724,393.936 26.002,394.033 24.784 C 394.147 23.354,394.032 22.845,393.596 22.845 C 393.187 22.845,393.063 22.453,393.193 21.568 C 393.317 20.725,393.172 20.212,392.766 20.056 C 392.428 19.926,392.263 19.531,392.399 19.177 C 392.534 18.824,392.501 18.534,392.324 18.534 C 392.148 18.534,391.621 17.663,391.153 16.599 C 390.685 15.534,390.156 14.662,389.978 14.659 C 389.801 14.657,389.655 14.384,389.655 14.053 C 389.655 12.964,382.662 5.626,381.609 5.611 C 381.333 5.607,381.042 5.458,380.963 5.280 C 380.753 4.809,375.482 2.155,374.755 2.155 C 374.416 2.155,374.138 1.983,374.138 1.772 C 374.138 1.561,373.895 1.398,373.599 1.409 C 372.319 1.456,371.515 1.270,371.702 0.968 C 372.164 0.220,30.045 -0.246,26.940 0.498 M359.668 20.210 C 359.798 20.420,360.537 20.714,361.310 20.863 C 365.433 21.660,370.476 26.218,373.038 31.466 C 375.027 35.540,375.028 35.590,374.903 159.052 L 374.784 276.078 197.306 276.186 L 19.828 276.294 19.828 156.060 C 19.828 76.370,19.973 35.737,20.259 35.560 C 20.496 35.414,20.690 34.820,20.690 34.241 C 20.690 29.552,29.703 20.885,34.986 20.495 C 35.144 20.484,35.418 20.329,35.596 20.151 C 36.061 19.686,359.381 19.745,359.668 20.210 M96.839 81.322 C 96.681 81.480,96.552 82.759,96.552 84.165 C 96.552 87.353,95.085 90.257,94.199 88.823 C 94.063 88.602,94.149 88.300,94.390 88.151 C 95.711 87.334,93.397 84.750,90.528 83.840 C 90.048 83.687,89.655 83.382,89.655 83.161 C 89.655 82.940,89.356 82.759,88.991 82.759 C 88.435 82.759,88.337 83.438,88.387 86.961 C 88.420 89.273,88.318 91.662,88.161 92.272 C 87.917 93.221,88.127 93.553,89.628 94.593 C 90.732 95.359,91.382 96.143,91.386 96.718 C 91.402 98.922,94.903 99.961,103.233 100.235 C 106.827 100.353,110.122 100.814,112.333 101.508 C 113.382 101.837,113.777 100.909,113.787 98.098 C 113.793 96.508,114.326 94.209,115.759 89.597 C 116.847 86.094,116.520 85.345,113.903 85.345 C 113.292 85.345,111.804 85.066,110.598 84.726 C 109.392 84.386,107.435 83.892,106.250 83.628 C 100.841 82.425,99.289 82.011,98.412 81.540 C 97.317 80.952,97.222 80.939,96.839 81.322 M319.593 85.521 C 319.028 85.934,318.523 86.001,318.017 85.729 C 316.485 84.909,315.221 88.576,315.104 94.181 C 315.076 95.510,314.658 97.155,314.014 98.470 C 313.407 99.709,313.121 100.794,313.332 101.056 C 313.532 101.305,313.836 102.381,314.009 103.448 C 314.181 104.515,314.470 105.582,314.651 105.819 C 314.832 106.056,315.120 106.735,315.290 107.328 C 316.444 111.351,317.815 112.660,318.336 110.237 C 318.510 109.429,319.482 107.972,320.633 106.793 C 321.731 105.669,322.734 104.311,322.863 103.776 C 322.992 103.240,323.622 102.549,324.264 102.239 C 324.906 101.930,325.431 101.494,325.431 101.270 C 325.431 101.045,325.629 100.862,325.871 100.862 C 326.815 100.862,329.741 98.655,329.736 97.947 C 329.730 97.169,326.836 93.787,325.912 93.479 C 325.622 93.383,325.215 92.628,325.007 91.803 C 323.540 85.991,321.766 83.932,319.593 85.521 M118.524 89.037 C 118.293 89.645,118.101 90.663,118.099 91.300 C 118.096 91.936,117.824 93.346,117.494 94.434 C 116.542 97.569,116.217 101.866,116.798 103.627 C 117.476 105.680,117.047 107.383,115.264 109.719 C 114.117 111.221,113.793 112.054,113.793 113.499 C 113.793 114.518,113.508 115.729,113.160 116.189 C 112.812 116.649,112.521 117.479,112.514 118.033 C 112.506 118.586,112.166 120.291,111.759 121.821 C 110.783 125.483,111.083 125.934,114.916 126.573 C 116.551 126.845,118.955 127.272,120.259 127.521 C 129.011 129.196,132.667 129.724,133.478 129.429 C 134.222 129.157,134.901 125.707,135.022 121.577 L 135.129 117.938 133.719 117.525 C 132.748 117.240,131.969 117.266,131.216 117.609 C 129.282 118.490,127.378 116.460,126.019 112.069 C 125.598 110.708,125.002 109.870,124.024 109.262 C 122.331 108.208,121.986 106.261,123.069 103.861 L 123.789 102.263 122.347 100.154 C 119.342 95.757,119.252 95.479,119.556 91.536 C 119.838 87.863,119.386 86.769,118.524 89.037 M122.584 89.465 C 122.079 91.477,122.685 94.250,124.080 96.318 C 124.823 97.419,125.431 98.496,125.431 98.713 C 125.431 98.930,125.815 99.313,126.283 99.564 C 127.786 100.368,128.105 101.510,127.299 103.201 C 126.642 104.579,126.637 104.794,127.243 105.486 C 128.214 106.593,129.145 108.615,129.471 110.324 C 130.104 113.644,134.122 115.092,136.502 112.857 C 137.603 111.822,136.075 111.769,151.078 113.360 C 153.448 113.611,157.783 114.125,160.710 114.502 C 165.210 115.080,166.124 115.095,166.620 114.597 C 167.298 113.918,168.255 102.091,168.028 97.198 L 167.888 94.181 166.164 94.085 C 165.216 94.032,162.209 93.698,159.483 93.342 C 156.756 92.986,152.683 92.504,150.431 92.271 C 143.919 91.596,139.216 90.928,136.334 90.268 C 134.863 89.931,133.020 89.653,132.239 89.650 C 131.458 89.647,129.752 89.359,128.448 89.009 C 124.677 87.996,122.919 88.133,122.584 89.465 M172.655 94.355 C 172.225 95.051,171.050 105.808,171.202 107.652 L 171.336 109.267 178.558 109.755 C 182.529 110.023,188.736 110.314,192.351 110.402 L 198.922 110.560 198.797 109.483 C 198.728 108.890,198.480 106.756,198.246 104.741 C 198.012 102.726,197.514 100.268,197.140 99.279 C 196.766 98.289,196.594 97.263,196.758 96.997 C 197.638 95.573,196.142 95.259,188.417 95.245 C 181.329 95.231,176.797 94.899,174.077 94.192 C 173.414 94.019,172.820 94.087,172.655 94.355 M200.987 95.986 C 200.834 96.385,200.955 98.470,201.256 100.619 C 201.557 102.768,201.992 105.884,202.223 107.543 C 202.454 109.203,202.641 111.512,202.637 112.675 C 202.634 113.839,202.913 115.191,203.256 115.681 C 203.696 116.309,203.879 117.803,203.879 120.760 C 203.879 125.914,203.066 125.535,213.358 125.173 C 223.000 124.834,222.980 124.843,219.415 122.554 C 216.766 120.854,215.956 119.492,215.951 116.731 C 215.949 116.094,215.751 115.054,215.510 114.420 C 215.142 113.452,215.268 112.945,216.299 111.267 C 216.975 110.167,217.650 108.512,217.798 107.589 C 217.995 106.369,218.577 105.428,219.931 104.141 C 222.713 101.497,223.521 100.101,222.285 100.071 C 220.193 100.021,218.246 99.411,216.854 98.369 C 215.560 97.400,215.238 97.330,214.082 97.767 C 213.038 98.161,212.515 98.132,211.493 97.622 C 210.789 97.270,209.884 96.983,209.482 96.983 C 209.081 96.983,208.305 96.595,207.759 96.121 C 206.417 94.957,201.420 94.857,200.987 95.986 M86.050 98.829 C 85.662 99.845,85.345 100.905,85.345 101.185 C 85.345 101.667,84.700 103.320,83.369 106.250 C 83.046 106.961,82.574 108.028,82.321 108.621 C 81.777 109.892,80.968 111.315,80.324 112.131 C 79.888 112.685,78.448 116.623,78.448 117.264 C 78.448 117.738,87.913 120.489,95.474 122.212 C 98.125 122.816,100.333 123.352,103.556 124.174 C 107.352 125.142,107.417 125.110,108.026 121.983 C 108.326 120.442,108.777 118.503,109.027 117.675 C 109.278 116.847,109.483 114.972,109.483 113.509 C 109.483 112.045,109.632 110.783,109.813 110.704 C 110.520 110.397,113.362 106.555,113.362 105.907 C 113.362 104.966,111.697 103.879,110.257 103.879 C 109.603 103.879,107.755 103.687,106.150 103.451 C 104.546 103.216,101.099 102.811,98.491 102.552 C 95.884 102.293,93.265 102.017,92.672 101.938 C 92.080 101.859,91.247 101.778,90.821 101.759 C 89.555 101.702,87.931 99.756,87.931 98.295 C 87.931 96.359,86.879 96.657,86.050 98.829 M234.052 103.022 C 234.052 103.262,232.985 103.981,231.681 104.620 C 230.377 105.260,229.310 105.914,229.310 106.075 C 229.310 106.745,231.556 107.755,233.905 108.141 C 237.799 108.781,239.571 109.678,239.734 111.089 C 239.943 112.904,241.258 112.896,242.019 111.075 C 242.446 110.052,243.019 109.490,243.842 109.285 C 244.503 109.121,246.248 108.413,247.720 107.712 C 249.861 106.693,250.553 106.534,251.173 106.922 C 252.070 107.481,254.799 106.938,255.063 106.148 C 255.268 105.531,253.055 104.405,252.076 104.628 C 251.664 104.722,251.146 104.410,250.876 103.905 C 250.260 102.755,250.051 102.775,246.767 104.310 C 243.535 105.822,242.079 105.919,240.302 104.741 C 239.591 104.270,238.609 103.884,238.121 103.882 C 237.633 103.881,236.857 103.595,236.397 103.246 C 235.431 102.516,234.052 102.384,234.052 103.022 M305.172 105.230 C 302.456 105.969,302.555 105.838,303.245 107.794 C 303.594 108.783,303.879 110.124,303.879 110.775 C 303.879 112.419,305.510 115.948,306.270 115.948 C 306.748 115.948,306.897 115.339,306.897 113.383 C 306.897 111.972,307.179 109.735,307.524 108.411 C 308.458 104.823,308.158 104.417,305.172 105.230 M310.183 105.085 C 309.779 105.740,309.435 114.873,309.795 115.392 C 310.078 115.798,310.569 115.791,312.022 115.362 C 314.695 114.573,314.966 113.804,313.592 110.903 C 312.966 109.582,312.340 107.898,312.201 107.160 C 311.828 105.188,310.784 104.114,310.183 105.085 M221.638 108.707 C 221.353 108.991,221.121 109.706,221.121 110.295 C 221.121 110.885,220.766 111.767,220.334 112.257 C 219.166 113.576,219.624 118.521,220.976 119.192 C 224.177 120.780,226.481 123.824,226.925 127.048 C 227.373 130.306,228.179 130.842,232.423 130.710 C 236.960 130.568,238.176 129.982,238.056 128.000 C 238.006 127.180,238.261 125.466,238.623 124.191 C 239.276 121.886,239.274 121.866,238.175 120.719 C 236.935 119.425,236.858 118.964,237.558 117.028 C 238.223 115.188,237.051 112.596,235.401 112.259 C 233.009 111.769,230.769 111.108,229.526 110.525 C 225.657 108.712,222.387 107.958,221.638 108.707 M295.294 109.021 C 293.690 110.412,292.672 112.906,292.672 115.444 C 292.672 117.565,292.526 117.920,291.042 119.405 C 289.376 121.070,289.270 121.102,283.421 121.683 C 282.857 121.739,282.487 122.199,282.310 123.060 C 282.164 123.772,281.776 124.781,281.448 125.304 C 281.120 125.826,280.990 126.392,281.158 126.560 C 281.570 126.972,290.906 125.296,294.755 124.120 C 296.616 123.551,299.569 124.391,299.569 125.488 C 299.569 126.715,303.387 127.350,303.490 126.139 C 303.837 122.050,303.294 117.722,302.186 115.733 C 301.526 114.547,300.845 112.631,300.673 111.475 C 300.502 110.319,300.260 109.106,300.135 108.781 C 299.781 107.859,296.443 108.024,295.294 109.021 M250.679 111.614 C 247.234 115.137,246.059 120.199,247.698 124.459 C 248.247 125.885,248.480 127.607,248.463 130.121 L 248.440 133.733 252.991 133.445 C 260.311 132.981,261.753 132.473,262.318 130.158 C 262.574 129.111,263.302 127.728,263.935 127.085 C 265.360 125.639,265.409 123.811,264.091 121.161 C 262.688 118.339,262.000 118.085,260.424 119.810 C 259.585 120.729,258.877 121.146,258.439 120.978 C 257.475 120.608,257.596 119.151,258.674 118.147 C 260.256 116.673,259.500 111.988,257.489 110.801 C 254.444 109.004,253.070 109.168,250.679 111.614 M171.294 113.430 C 170.197 115.205,169.390 127.044,170.326 127.637 C 170.644 127.839,174.300 128.022,178.448 128.045 C 185.604 128.084,188.979 128.317,195.905 129.251 C 199.431 129.727,199.201 129.841,199.439 127.493 C 200.081 121.153,199.735 116.642,198.491 115.164 L 197.412 113.883 185.452 113.676 C 178.874 113.562,173.077 113.331,172.570 113.162 C 171.983 112.967,171.520 113.064,171.294 113.430 M139.915 116.056 C 139.548 117.426,138.376 124.618,138.142 126.940 C 137.999 128.362,137.597 130.944,137.250 132.677 C 136.542 136.217,136.647 136.638,138.243 136.638 C 138.860 136.638,141.031 136.920,143.066 137.265 C 149.542 138.363,164.277 139.745,164.732 139.297 C 165.239 138.798,166.164 128.445,166.164 123.276 L 166.164 118.319 160.776 118.042 C 157.813 117.890,154.343 117.551,153.066 117.288 C 151.789 117.025,149.728 116.810,148.487 116.810 C 147.245 116.810,145.404 116.519,144.397 116.164 C 142.166 115.377,140.110 115.327,139.915 116.056 M312.500 117.225 C 311.433 117.675,309.465 118.165,308.127 118.314 C 305.793 118.574,305.686 118.641,305.490 119.961 C 305.094 122.633,305.746 122.891,310.060 121.767 C 311.425 121.412,312.994 121.121,313.546 121.121 C 314.098 121.121,314.791 121.412,315.086 121.767 C 315.622 122.413,318.560 122.676,319.108 122.128 C 319.475 121.760,316.844 119.397,316.067 119.397 C 315.628 119.397,315.550 119.014,315.761 117.888 C 316.102 116.074,315.514 115.954,312.500 117.225 M76.961 121.659 C 76.869 121.956,76.697 122.683,76.579 123.276 C 76.461 123.869,76.081 125.129,75.735 126.078 C 74.930 128.284,75.035 140.167,75.869 141.172 C 76.163 141.526,76.531 142.445,76.687 143.214 C 76.989 144.699,78.509 145.371,79.446 144.433 C 80.051 143.828,81.034 143.830,81.034 144.437 C 81.034 144.696,80.647 145.010,80.172 145.134 C 79.698 145.258,79.310 145.637,79.310 145.977 C 79.310 146.317,79.002 147.191,78.625 147.919 C 78.000 149.129,78.000 149.398,78.625 151.037 C 79.002 152.023,79.310 153.927,79.310 155.267 C 79.310 157.810,79.620 158.837,81.034 160.991 C 82.386 163.049,82.755 164.147,82.687 165.898 C 82.624 167.509,83.433 168.814,84.947 169.542 C 85.284 169.704,86.142 170.220,86.853 170.688 C 87.565 171.156,88.631 171.748,89.224 172.004 C 90.375 172.500,92.200 174.476,92.226 175.254 C 92.234 175.512,93.015 176.439,93.961 177.314 C 94.906 178.189,95.799 179.432,95.945 180.077 C 96.838 184.026,96.662 183.791,99.164 184.369 C 100.454 184.666,102.766 184.862,104.302 184.804 L 107.095 184.698 107.591 182.455 C 107.865 181.222,108.402 179.899,108.785 179.515 C 109.169 179.132,109.483 178.534,109.483 178.187 C 109.483 177.840,109.799 177.073,110.185 176.484 C 111.128 175.045,109.939 171.835,107.019 167.937 C 105.885 166.423,104.666 164.750,104.310 164.220 C 103.955 163.690,103.470 163.038,103.233 162.770 C 102.996 162.503,102.220 161.412,101.510 160.345 C 100.799 159.278,100.116 158.308,99.991 158.190 C 99.743 157.953,98.326 155.823,97.635 154.645 C 97.395 154.236,96.410 152.782,95.446 151.412 C 88.685 141.803,88.829 142.108,89.822 139.505 C 90.197 138.521,90.691 136.843,90.919 135.776 C 91.528 132.920,92.221 130.205,92.892 128.044 C 93.532 125.982,93.426 125.431,92.389 125.431 C 92.024 125.431,91.114 125.160,90.367 124.828 C 89.080 124.257,88.115 123.974,82.945 122.655 C 81.743 122.348,80.350 121.877,79.848 121.609 C 78.640 120.962,77.169 120.988,76.961 121.659 M312.931 124.954 C 312.931 125.822,314.040 126.509,314.427 125.882 C 314.790 125.296,314.195 124.138,313.531 124.138 C 313.201 124.138,312.931 124.505,312.931 124.954 M307.651 125.135 C 305.457 125.607,305.351 125.805,306.072 128.061 C 306.330 128.867,306.625 129.795,306.728 130.123 C 306.883 130.621,307.039 130.611,307.660 130.067 C 308.070 129.707,308.842 129.279,309.375 129.117 C 310.677 128.720,311.238 127.550,310.840 126.063 C 310.452 124.610,310.297 124.565,307.651 125.135 M96.802 127.263 C 96.718 127.559,96.336 128.842,95.954 130.114 C 95.572 131.386,95.259 132.815,95.259 133.289 C 95.259 133.763,94.981 135.050,94.642 136.149 C 92.793 142.137,92.255 140.530,99.774 151.509 C 101.397 153.879,104.100 157.855,105.781 160.344 C 110.076 166.705,110.776 167.368,110.776 165.076 C 110.776 164.167,111.969 163.362,113.319 163.362 C 114.415 163.362,115.086 162.149,115.086 160.166 C 115.086 159.326,115.363 157.131,115.701 155.289 C 116.694 149.876,117.208 146.946,117.684 143.966 C 117.931 142.425,118.412 139.903,118.753 138.362 C 119.094 136.821,119.427 134.618,119.493 133.466 L 119.612 131.373 116.379 130.612 C 113.272 129.882,111.257 129.454,105.172 128.234 C 103.631 127.925,101.693 127.459,100.865 127.198 C 98.862 126.568,96.992 126.597,96.802 127.263 M292.888 127.177 C 288.725 128.349,286.124 129.029,283.772 129.561 C 282.315 129.891,280.605 130.357,279.973 130.597 C 279.340 130.838,278.362 131.034,277.799 131.034 C 276.341 131.034,276.283 131.296,276.750 135.803 C 277.381 141.907,276.436 141.759,292.888 138.336 C 297.897 137.293,300.074 135.797,298.491 134.483 C 298.032 134.102,297.845 133.094,297.845 131.006 C 297.845 127.034,296.656 126.115,292.888 127.177 M211.638 128.899 C 209.149 129.067,206.392 129.228,205.511 129.258 C 202.714 129.350,202.634 130.450,204.906 137.500 C 205.250 138.567,205.767 140.361,206.055 141.487 L 206.578 143.534 210.724 143.534 C 213.005 143.534,216.422 143.236,218.319 142.870 C 220.216 142.505,222.446 142.263,223.276 142.332 L 224.784 142.457 224.914 140.450 C 225.027 138.712,225.243 138.308,226.528 137.433 C 228.473 136.108,228.415 135.714,225.862 132.849 C 224.601 131.435,223.707 130.020,223.707 129.440 C 223.707 128.325,221.553 128.229,211.638 128.899 M300.518 129.852 C 299.299 131.320,299.424 132.783,300.897 134.304 C 302.322 135.774,302.328 135.797,301.598 137.033 C 300.411 139.044,301.338 142.241,303.109 142.241 C 304.684 142.241,305.907 134.506,304.461 133.696 C 303.917 133.392,303.810 132.924,304.006 131.715 C 304.332 129.704,301.775 128.337,300.518 129.852 M169.635 131.573 C 169.544 131.870,169.362 133.709,169.231 135.660 C 168.951 139.842,169.162 140.086,173.053 140.086 C 176.997 140.086,178.017 140.873,178.017 143.911 L 178.017 146.420 182.866 146.699 C 185.533 146.853,191.274 146.980,195.622 146.981 L 203.529 146.983 203.231 144.720 C 203.067 143.475,202.536 141.584,202.052 140.517 C 201.567 139.450,201.053 137.809,200.909 136.870 C 200.551 134.542,198.382 133.002,195.990 133.379 C 194.869 133.556,194.056 133.431,193.416 132.983 C 192.800 132.551,191.447 132.323,189.452 132.315 C 187.786 132.309,182.834 132.023,178.448 131.681 C 174.062 131.339,170.323 131.054,170.137 131.047 C 169.952 131.040,169.726 131.277,169.635 131.573 M308.752 132.080 C 307.747 132.950,307.660 133.172,308.235 133.396 C 308.967 133.681,312.069 132.084,312.069 131.423 C 312.069 130.640,309.928 131.064,308.752 132.080 M123.328 133.656 C 123.074 134.386,122.753 135.986,122.616 137.212 C 122.479 138.437,122.096 140.700,121.765 142.241 C 121.099 145.346,120.497 148.719,119.581 154.485 C 118.847 159.101,119.038 159.483,122.081 159.483 C 123.262 159.483,125.324 159.754,126.662 160.086 C 128.000 160.418,130.590 160.813,132.418 160.964 C 134.246 161.116,136.346 161.450,137.084 161.708 C 139.157 162.430,139.153 162.443,140.518 150.647 C 140.764 148.513,141.169 145.626,141.417 144.231 C 141.971 141.117,142.022 141.167,137.353 140.252 C 132.988 139.396,132.305 138.673,133.225 135.885 C 133.904 133.827,133.174 133.215,129.476 132.738 C 124.336 132.076,123.854 132.148,123.328 133.656 M234.806 133.939 L 232.328 134.095 232.328 135.713 C 232.328 136.956,231.984 137.707,230.845 138.950 C 230.030 139.840,229.032 141.575,228.628 142.806 C 228.224 144.036,227.630 145.426,227.309 145.893 C 226.175 147.543,227.725 149.851,232.360 153.412 C 233.575 154.346,233.691 154.630,233.486 156.160 C 233.264 157.816,234.488 159.914,235.676 159.914 C 235.880 159.914,236.371 160.593,236.767 161.422 C 237.937 163.877,240.948 162.028,240.948 158.854 C 240.948 157.998,241.243 156.847,241.604 156.296 C 242.170 155.432,242.202 154.296,241.837 148.014 C 241.209 137.218,240.283 133.529,238.243 133.702 C 237.716 133.747,236.169 133.854,234.806 133.939 M269.480 135.421 C 267.446 136.853,266.455 136.978,261.207 136.470 C 256.614 136.026,256.609 136.033,257.484 141.446 C 257.880 143.899,258.250 146.580,258.305 147.404 C 258.374 148.443,258.688 149.043,259.329 149.360 C 259.837 149.612,260.547 150.062,260.906 150.360 C 261.332 150.714,262.632 150.857,264.661 150.774 L 267.763 150.647 268.697 148.897 C 269.211 147.935,270.451 146.319,271.454 145.307 C 273.436 143.305,273.653 141.985,272.915 136.427 C 272.567 133.808,272.006 133.644,269.480 135.421 M248.554 137.033 C 245.260 137.384,244.304 138.403,244.877 140.954 C 245.092 141.913,245.315 146.086,245.371 150.227 C 245.483 158.414,245.667 158.889,248.035 157.098 C 248.495 156.750,249.189 156.466,249.576 156.466 C 250.358 156.466,252.155 154.741,252.155 153.991 C 252.155 153.727,252.756 153.041,253.490 152.466 C 254.991 151.292,254.984 151.447,253.919 141.855 C 253.265 135.966,253.827 136.472,248.554 137.033 M294.425 140.491 C 294.084 140.706,292.678 141.013,291.299 141.173 C 289.920 141.333,288.665 141.668,288.511 141.918 C 288.203 142.416,290.596 144.628,292.134 145.266 C 292.766 145.529,293.103 146.036,293.103 146.726 C 293.103 148.075,294.162 149.138,295.505 149.138 C 296.701 149.138,296.884 148.505,295.856 147.929 C 294.829 147.354,294.787 143.050,295.797 141.931 C 297.163 140.420,296.175 139.383,294.425 140.491 M145.259 142.959 C 145.259 143.827,144.977 146.203,144.632 148.239 C 144.015 151.879,143.081 159.094,142.953 161.207 C 142.894 162.189,143.079 162.309,145.043 162.555 C 154.382 163.727,171.771 165.260,172.510 164.976 C 173.306 164.671,173.653 160.869,173.780 151.081 L 173.869 144.188 168.939 143.664 C 166.227 143.375,161.099 142.929,157.543 142.672 C 153.987 142.415,150.399 142.020,149.569 141.794 C 146.310 140.908,145.259 141.192,145.259 142.959 M281.470 143.313 C 280.497 144.486,281.330 145.567,282.357 144.464 C 282.916 143.864,283.743 143.534,284.690 143.534 C 285.496 143.534,286.276 143.341,286.422 143.103 C 286.875 142.372,282.083 142.575,281.470 143.313 M299.810 143.063 C 299.348 143.809,299.933 145.784,300.555 145.577 C 301.323 145.321,301.403 144.280,300.725 143.353 C 300.294 142.764,300.043 142.685,299.810 143.063 M296.983 145.474 C 296.983 146.968,297.142 147.414,297.675 147.414 C 298.130 147.414,298.278 147.179,298.106 146.732 C 297.963 146.357,297.845 145.484,297.845 144.792 C 297.845 144.101,297.651 143.534,297.414 143.534 C 297.177 143.534,296.983 144.407,296.983 145.474 M277.494 145.596 C 276.281 145.749,272.414 149.279,272.414 150.234 C 272.414 150.521,272.123 150.998,271.767 151.293 C 271.412 151.588,271.121 152.130,271.121 152.497 C 271.121 152.864,270.802 153.517,270.413 153.947 C 269.492 154.965,272.258 157.759,274.187 157.759 C 276.065 157.759,278.011 156.431,278.015 155.147 C 278.016 154.540,278.302 153.668,278.650 153.207 C 278.998 152.747,279.289 151.943,279.297 151.421 C 279.304 150.899,279.778 150.123,280.349 149.697 L 281.388 148.922 280.497 147.326 C 279.510 145.560,279.199 145.380,277.494 145.596 M214.116 146.874 C 208.606 147.009,207.691 147.283,209.698 148.197 C 210.291 148.467,210.796 148.935,210.820 149.236 C 211.069 152.356,211.258 153.222,211.832 153.856 C 212.376 154.456,212.500 155.855,212.500 161.362 C 212.500 169.540,211.332 168.786,223.020 168.145 C 228.982 167.818,232.573 167.787,233.282 168.057 C 235.004 168.711,235.432 167.900,234.480 165.786 C 234.040 164.809,233.575 163.669,233.448 163.254 C 233.321 162.839,232.836 162.500,232.370 162.500 C 231.291 162.500,229.760 160.364,229.444 158.416 C 229.310 157.588,228.934 156.690,228.609 156.420 C 228.283 156.150,228.017 155.677,228.017 155.370 C 228.017 155.062,227.073 153.777,225.919 152.513 C 224.765 151.249,223.682 149.584,223.513 148.811 C 223.175 147.268,222.148 146.501,220.610 146.645 C 220.061 146.697,217.139 146.800,214.116 146.874 M286.922 148.440 C 286.292 149.265,285.590 150.434,285.361 151.036 C 285.131 151.640,284.475 152.249,283.896 152.394 C 282.872 152.651,281.956 154.407,281.297 157.380 C 280.832 159.473,278.226 160.963,274.603 161.207 C 272.386 161.356,271.343 161.608,271.204 162.028 C 270.948 162.805,276.114 162.466,279.940 161.455 C 281.353 161.081,283.116 160.776,283.858 160.776 C 284.601 160.776,286.160 160.487,287.324 160.134 C 288.487 159.781,290.009 159.490,290.704 159.487 C 292.148 159.482,297.004 158.234,297.583 157.720 C 297.803 157.524,297.665 156.741,297.259 155.887 C 296.870 155.067,296.552 154.007,296.552 153.531 C 296.552 152.861,296.019 152.499,294.186 151.922 C 291.411 151.050,291.066 150.715,290.876 148.705 C 290.662 146.447,288.550 146.306,286.922 148.440 M300.527 147.964 C 299.351 148.508,299.488 149.300,300.790 149.491 C 301.356 149.575,301.835 149.350,301.999 148.924 C 302.389 147.907,301.667 147.437,300.527 147.964 M177.683 151.124 C 177.447 151.573,177.114 154.867,176.943 158.446 L 176.633 164.952 179.976 165.235 C 187.933 165.907,208.626 165.570,208.957 164.763 C 209.845 162.601,209.294 156.218,208.082 154.630 C 207.431 153.775,206.708 152.578,206.477 151.969 L 206.056 150.862 195.982 150.862 C 190.441 150.862,184.154 150.738,182.011 150.585 C 178.467 150.334,178.074 150.383,177.683 151.124 M256.825 154.943 C 255.962 155.529,254.897 156.772,254.460 157.705 C 253.519 159.708,250.705 161.107,246.807 161.510 C 244.648 161.733,244.326 161.903,243.542 163.231 C 242.093 165.686,242.475 166.977,244.353 165.972 C 244.772 165.747,247.911 165.363,251.329 165.117 C 261.451 164.390,265.072 163.689,266.284 162.222 C 268.716 159.279,268.737 159.201,267.502 157.733 C 266.884 157.000,266.379 156.020,266.379 155.557 C 266.379 154.518,266.140 154.443,261.848 154.129 C 258.663 153.896,258.272 153.959,256.825 154.943 M118.284 163.254 C 117.705 165.212,116.477 167.035,115.303 167.679 C 113.514 168.661,113.161 170.914,114.274 174.258 C 115.101 176.742,114.891 178.448,113.756 178.448 C 113.515 178.448,113.034 179.079,112.687 179.849 C 112.340 180.620,111.826 181.577,111.544 181.976 C 111.143 182.544,111.159 182.941,111.615 183.793 C 112.051 184.607,112.076 185.032,111.715 185.467 C 111.208 186.079,112.124 187.931,112.934 187.931 C 113.146 187.931,114.171 188.506,115.213 189.209 C 116.254 189.912,117.573 190.688,118.144 190.932 C 118.714 191.177,119.472 191.557,119.828 191.776 C 124.953 194.937,129.335 196.520,133.014 196.542 L 134.779 196.552 135.264 192.565 C 135.531 190.372,135.957 186.832,136.212 184.698 C 136.466 182.565,136.876 179.662,137.123 178.247 C 137.637 175.303,138.428 168.939,138.517 167.026 C 138.585 165.571,138.180 165.455,128.017 164.030 C 125.528 163.681,122.716 163.199,121.767 162.958 C 119.302 162.332,118.538 162.397,118.284 163.254 M291.112 163.113 C 290.135 163.419,288.099 163.797,286.586 163.954 C 279.163 164.724,276.279 165.554,274.360 167.473 C 273.368 168.465,271.603 169.837,270.438 170.522 C 268.387 171.728,268.358 171.772,269.530 171.906 C 270.197 171.983,270.983 171.845,271.278 171.600 C 272.464 170.616,278.688 170.503,280.242 171.438 C 281.390 172.129,282.203 172.264,284.267 172.108 C 286.753 171.919,286.945 171.980,289.194 173.671 C 292.106 175.860,293.005 175.889,294.397 173.834 C 294.989 172.959,296.008 171.657,296.659 170.940 C 298.008 169.456,298.119 168.868,297.198 168.103 C 296.228 167.299,296.399 165.629,297.513 165.033 L 298.474 164.519 297.513 164.090 C 296.984 163.854,296.552 163.400,296.552 163.081 C 296.552 162.332,293.552 162.350,291.112 163.113 M142.502 166.487 C 142.399 167.020,142.097 168.542,141.831 169.868 C 141.565 171.194,141.169 174.104,140.952 176.334 C 140.526 180.691,140.023 184.590,138.942 191.919 C 138.068 197.844,139.108 199.728,141.474 196.507 C 142.387 195.265,142.599 195.187,144.452 195.403 C 145.966 195.580,146.845 195.424,148.096 194.753 C 149.625 193.934,149.918 193.912,152.135 194.452 C 153.534 194.793,156.939 195.036,160.345 195.039 L 166.164 195.043 166.465 189.009 C 166.630 185.690,166.962 181.228,167.203 179.095 C 167.443 176.961,167.695 173.664,167.764 171.767 L 167.888 168.319 162.716 168.027 C 159.871 167.866,156.282 167.531,154.741 167.281 C 153.200 167.032,150.970 166.822,149.784 166.814 C 148.599 166.807,146.677 166.512,145.513 166.159 C 142.787 165.332,142.723 165.339,142.502 166.487 M263.362 167.439 C 261.821 167.746,258.136 168.219,255.172 168.489 C 248.231 169.122,244.319 169.733,243.786 170.265 C 243.553 170.499,242.480 170.709,241.401 170.733 C 238.155 170.804,237.352 171.193,236.862 172.935 C 236.620 173.795,236.277 174.644,236.099 174.821 C 234.184 176.733,238.810 177.217,246.121 175.870 C 247.188 175.674,250.717 175.375,253.964 175.206 L 259.867 174.899 261.768 172.902 C 262.813 171.804,264.664 170.226,265.881 169.397 C 269.524 166.913,268.805 166.354,263.362 167.439 M172.091 168.414 C 171.794 168.520,171.552 168.869,171.552 169.191 C 171.552 169.879,173.172 170.123,180.293 170.504 C 186.821 170.854,186.722 170.760,186.359 176.308 L 186.079 180.570 187.500 181.341 C 188.281 181.765,189.225 182.452,189.599 182.866 C 190.079 183.399,190.930 183.621,192.500 183.621 C 193.849 183.621,194.913 183.851,195.209 184.208 C 195.801 184.921,202.135 185.353,207.048 185.017 L 210.436 184.784 210.171 180.215 C 209.772 173.309,209.443 170.530,208.956 169.935 C 208.626 169.532,205.992 169.397,198.513 169.397 C 193.013 169.397,186.490 169.213,184.019 168.990 C 177.851 168.431,172.736 168.184,172.091 168.414 M225.216 171.837 C 224.741 171.929,221.940 172.145,218.989 172.317 L 213.625 172.629 213.740 179.310 C 213.861 186.377,213.900 186.529,216.238 189.031 L 217.467 190.346 221.457 190.027 C 226.524 189.622,227.297 189.383,227.016 188.307 C 226.800 187.483,227.896 183.805,228.690 182.689 C 228.916 182.372,229.516 181.239,230.024 180.172 C 230.532 179.106,231.307 177.485,231.746 176.570 C 232.542 174.911,232.541 174.907,231.573 174.255 C 231.022 173.884,230.603 173.159,230.603 172.577 C 230.603 171.544,228.326 171.232,225.216 171.837 M171.358 174.249 C 171.267 174.543,171.072 177.306,170.924 180.388 C 170.777 183.470,170.478 186.864,170.261 187.931 C 170.043 188.998,169.857 191.665,169.846 193.858 C 169.818 199.966,169.695 200.031,160.345 198.922 C 152.651 198.010,152.859 197.917,155.711 200.995 C 156.719 202.083,157.997 203.904,158.552 205.042 C 159.107 206.181,159.980 207.957,160.492 208.990 C 162.191 212.419,165.397 214.336,166.375 212.508 C 167.957 209.552,173.125 208.518,176.194 210.544 C 179.096 212.460,179.905 213.500,183.992 220.560 C 184.980 222.267,185.974 223.778,186.200 223.918 C 186.427 224.058,187.024 225.571,187.528 227.280 C 188.617 230.970,189.604 232.178,191.738 232.431 C 192.608 232.535,193.631 232.758,194.012 232.927 C 194.612 233.193,194.735 232.720,194.923 229.418 C 195.100 226.321,195.345 225.280,196.221 223.899 C 197.743 221.500,201.923 217.672,203.020 217.672 C 204.590 217.672,208.190 215.186,208.190 214.102 C 208.190 212.762,210.038 211.190,211.353 211.413 C 213.126 211.713,214.196 210.861,214.683 208.761 C 215.186 206.593,215.192 202.272,214.692 201.963 C 213.496 201.223,212.500 197.880,212.493 194.584 C 212.486 190.499,212.462 190.455,209.603 189.230 C 207.376 188.277,207.329 188.275,205.183 189.047 C 203.314 189.719,202.802 189.750,201.486 189.275 C 200.319 188.853,199.815 188.841,199.353 189.224 C 198.723 189.747,198.868 189.777,193.103 187.923 C 191.800 187.504,190.151 187.032,189.440 186.874 C 183.774 185.618,182.241 183.862,182.377 178.784 C 182.439 176.476,182.405 174.513,182.301 174.423 C 181.719 173.915,171.510 173.753,171.358 174.249 M276.078 174.339 C 275.841 174.412,274.522 174.721,273.148 175.025 C 269.402 175.855,269.145 175.440,278.954 184.400 C 283.018 188.112,286.653 186.730,288.086 180.927 C 288.247 180.275,288.569 179.741,288.801 179.741 C 289.824 179.741,289.080 177.976,287.546 176.760 C 285.751 175.339,283.819 175.049,281.644 175.876 C 280.662 176.249,280.206 176.145,278.823 175.230 C 277.203 174.157,276.942 174.072,276.078 174.339 M263.147 177.586 C 262.672 177.790,261.569 177.970,260.694 177.987 C 258.758 178.024,258.435 178.464,259.006 180.283 C 259.248 181.052,259.863 183.136,260.373 184.914 C 260.883 186.692,261.468 188.438,261.672 188.793 C 263.311 191.651,263.719 193.102,263.239 194.373 C 262.732 195.716,263.348 199.284,264.243 200.188 C 264.491 200.438,266.892 200.375,270.573 200.022 C 278.166 199.293,279.066 198.756,279.502 194.690 C 279.950 190.501,278.983 189.098,270.531 181.681 C 269.180 180.496,267.471 178.992,266.732 178.341 C 265.339 177.111,264.610 176.957,263.147 177.586 M249.805 179.162 C 244.960 179.911,245.311 178.969,245.399 191.007 C 245.479 201.914,245.690 203.069,247.330 201.584 C 248.091 200.895,253.723 199.730,257.543 199.471 L 259.267 199.353 259.394 195.966 C 259.481 193.641,259.335 192.290,258.929 191.656 C 258.603 191.148,257.916 189.327,257.401 187.608 C 256.887 185.889,256.056 183.125,255.555 181.466 C 255.054 179.806,254.424 178.474,254.154 178.506 C 253.884 178.538,251.927 178.833,249.805 179.162 M237.500 180.232 C 234.557 180.636,232.346 182.222,232.314 183.951 C 232.306 184.362,232.015 185.075,231.667 185.535 C 231.239 186.101,231.034 187.435,231.034 189.655 C 231.034 191.875,231.239 193.210,231.667 193.775 C 232.625 195.041,232.462 196.282,230.967 199.136 C 229.404 202.117,229.525 202.486,231.836 201.793 C 235.771 200.614,239.040 201.482,239.304 203.776 C 239.422 204.802,239.630 204.957,240.891 204.957 L 242.343 204.957 242.268 192.700 C 242.227 185.959,242.096 180.286,241.977 180.093 C 241.729 179.691,241.356 179.703,237.500 180.232 M220.043 193.937 L 216.595 194.181 216.683 196.712 C 216.731 198.104,217.033 199.558,217.354 199.944 C 218.586 201.429,218.905 202.944,218.661 206.163 L 218.416 209.400 219.747 210.088 C 221.411 210.948,223.380 210.967,224.985 210.137 C 226.179 209.520,229.790 210.482,230.603 211.635 C 231.212 212.497,232.828 212.979,233.433 212.477 C 234.273 211.780,234.211 211.095,233.190 209.796 C 232.716 209.193,232.328 208.398,232.328 208.029 C 232.328 207.660,232.716 207.150,233.190 206.897 C 234.862 206.001,234.014 205.639,230.456 205.728 C 227.929 205.792,226.647 205.643,226.145 205.227 C 225.359 204.576,225.182 202.791,225.862 202.371 C 226.099 202.224,226.293 201.773,226.293 201.369 C 226.293 200.965,226.681 199.910,227.155 199.025 C 228.212 197.053,228.312 194.171,227.335 193.796 C 226.618 193.521,225.651 193.540,220.043 193.937 M93.724 199.948 C 92.524 200.646,91.069 201.910,90.491 202.757 C 89.913 203.604,88.906 204.484,88.254 204.712 C 86.614 205.287,86.755 205.874,89.228 208.763 C 91.590 211.523,91.671 211.722,90.745 212.490 C 90.234 212.914,89.814 212.833,88.590 212.076 C 87.257 211.253,87.037 211.221,86.807 211.818 C 86.663 212.193,86.276 212.500,85.945 212.500 C 85.301 212.500,85.101 214.921,85.675 215.771 C 86.169 216.502,87.616 216.721,89.784 216.392 C 91.919 216.068,92.241 216.320,92.241 218.312 C 92.241 219.472,89.817 221.121,88.111 221.121 C 87.420 221.121,86.901 221.460,86.628 222.091 C 86.398 222.624,85.976 223.385,85.692 223.782 C 85.281 224.356,85.317 224.800,85.864 225.938 C 86.244 226.726,86.763 227.904,87.018 228.556 C 87.401 229.534,87.744 229.741,88.987 229.741 C 90.322 229.741,90.535 229.900,90.866 231.142 C 91.131 232.139,91.472 232.522,92.046 232.468 C 92.489 232.427,93.248 232.609,93.732 232.873 C 94.216 233.136,95.242 233.301,96.013 233.238 C 97.656 233.104,97.743 233.512,96.600 235.991 C 95.507 238.361,92.444 241.379,91.131 241.379 C 90.556 241.379,90.086 241.573,90.086 241.810 C 90.086 242.047,90.484 242.241,90.970 242.241 C 93.585 242.241,102.782 233.861,101.833 232.342 C 101.420 231.680,101.508 231.269,102.322 230.070 C 102.868 229.265,103.435 228.134,103.581 227.557 C 103.872 226.412,105.390 225.248,106.057 225.660 C 106.308 225.815,106.214 226.290,105.824 226.848 C 105.119 227.854,104.927 230.603,105.560 230.603 C 106.401 230.603,109.052 227.462,109.052 226.466 C 109.052 225.239,109.965 225.134,112.931 226.020 C 115.125 226.675,122.414 226.471,122.414 225.754 C 122.414 225.510,121.880 225.430,121.183 225.569 C 119.756 225.855,118.100 224.896,118.110 223.790 C 118.115 223.113,116.902 218.739,115.875 215.733 C 115.632 215.022,115.277 213.761,115.086 212.931 C 114.896 212.101,114.532 210.841,114.278 210.129 C 113.399 207.670,112.069 202.869,112.069 202.158 C 112.069 200.496,110.147 199.450,107.953 199.917 C 106.064 200.320,102.460 199.992,97.198 198.938 C 96.229 198.744,95.358 198.997,93.724 199.948 M279.741 202.781 C 279.741 203.551,277.766 204.473,277.057 204.034 C 276.806 203.879,273.466 203.789,269.635 203.834 C 264.500 203.895,262.377 203.764,261.551 203.336 C 260.603 202.844,259.786 202.859,256.219 203.432 C 251.104 204.255,250.222 205.172,254.547 205.172 C 257.392 205.172,259.357 205.907,261.130 207.635 C 262.051 208.532,263.523 208.278,265.333 206.909 C 267.739 205.087,268.982 205.212,271.273 207.503 C 272.318 208.547,273.972 209.931,274.948 210.577 L 276.724 211.752 276.724 214.913 C 276.724 217.558,276.855 218.143,277.529 218.504 C 278.093 218.806,278.273 219.258,278.128 220.013 C 277.899 221.212,279.984 223.707,281.215 223.707 C 281.594 223.707,282.289 224.551,282.795 225.627 C 283.306 226.715,284.707 228.410,286.030 229.539 C 287.312 230.635,288.362 231.822,288.362 232.175 C 288.362 233.145,290.194 232.716,290.739 231.619 C 290.991 231.111,291.481 230.354,291.827 229.936 C 292.687 228.899,292.539 223.147,291.615 221.738 C 291.249 221.178,290.948 220.460,290.948 220.142 C 290.948 219.824,290.452 218.896,289.845 218.079 C 288.465 216.221,286.638 212.638,286.638 211.789 C 286.638 211.437,286.105 210.459,285.453 209.615 C 284.801 208.771,283.586 206.798,282.753 205.231 C 281.318 202.528,279.741 201.246,279.741 202.781 M131.322 214.080 C 130.396 215.006,131.308 216.578,132.504 216.119 C 133.389 215.780,133.391 214.394,132.508 214.055 C 131.664 213.731,131.672 213.731,131.322 214.080 M142.672 219.799 C 142.672 220.762,144.261 221.429,144.939 220.751 C 145.259 220.431,145.230 220.097,144.843 219.630 C 144.049 218.674,142.672 218.780,142.672 219.799 M153.879 224.494 C 153.879 225.119,155.848 226.724,156.615 226.724 C 157.585 226.724,157.997 225.591,157.323 224.779 C 156.769 224.111,153.879 223.872,153.879 224.494 M125.937 225.998 C 124.658 227.359,124.758 227.861,126.373 228.184 C 127.127 228.335,128.070 228.753,128.467 229.112 C 129.044 229.634,129.440 229.671,130.430 229.294 C 131.480 228.895,131.772 228.948,132.334 229.642 C 132.699 230.093,133.526 230.594,134.171 230.756 C 134.819 230.919,135.345 231.351,135.345 231.721 C 135.345 232.615,136.801 232.322,136.980 231.392 C 137.075 230.902,136.710 230.593,135.802 230.394 C 135.079 230.235,133.804 229.441,132.969 228.630 C 131.340 227.048,130.790 226.842,130.478 227.694 C 130.330 228.098,130.149 228.110,129.758 227.743 C 129.390 227.397,129.374 227.167,129.704 226.963 C 130.516 226.461,130.218 225.962,128.815 225.473 C 127.018 224.847,127.019 224.847,125.937 225.998 M160.776 231.628 C 160.776 231.955,160.485 232.463,160.129 232.759 C 159.308 233.440,159.309 234.786,160.132 236.364 C 160.486 237.043,160.776 237.970,160.776 238.425 C 160.776 239.637,161.971 239.892,163.061 238.911 C 163.582 238.441,164.834 237.689,165.843 237.240 C 168.249 236.167,168.113 235.279,165.178 232.889 C 162.917 231.049,160.776 230.436,160.776 231.628 M134.327 232.627 C 133.842 233.112,134.032 233.621,134.698 233.621 C 135.054 233.621,135.345 233.438,135.345 233.215 C 135.345 232.672,134.672 232.282,134.327 232.627 M138.030 232.839 C 138.296 233.639,139.224 233.771,139.224 233.010 C 139.224 232.635,138.917 232.328,138.542 232.328 C 138.166 232.328,137.936 232.558,138.030 232.839 M101.955 236.460 C 101.553 237.073,101.323 237.674,101.445 237.795 C 101.781 238.131,103.850 236.497,103.866 235.884 C 103.889 234.946,102.714 235.301,101.955 236.460 M104.957 316.810 L 104.957 319.181 97.091 319.299 L 89.224 319.416 89.224 325.872 L 89.224 332.328 96.283 332.328 C 104.283 332.328,104.447 332.391,104.229 335.421 L 104.095 337.284 96.668 337.402 L 89.242 337.520 89.125 346.454 L 89.009 355.388 86.207 355.388 L 83.405 355.388 83.293 335.599 C 83.191 317.569,83.245 315.739,83.906 315.010 C 84.579 314.266,85.353 314.217,94.794 314.324 L 104.957 314.440 104.957 316.810 M135.891 315.647 C 136.165 316.469,136.125 317.259,135.767 318.125 L 135.240 319.397 127.103 319.397 L 118.966 319.397 118.966 325.216 L 118.966 331.034 125.809 331.034 C 133.571 331.034,133.756 331.109,133.539 334.128 L 133.405 335.991 126.175 336.110 L 118.945 336.228 119.063 343.437 L 119.181 350.647 127.586 350.862 L 135.991 351.078 135.991 353.233 L 135.991 355.388 125.053 355.503 C 117.345 355.584,113.940 355.473,113.523 355.127 C 112.692 354.437,112.641 315.813,113.470 314.864 C 113.915 314.355,115.883 314.264,124.749 314.343 L 135.489 314.440 135.891 315.647 M163.362 315.021 C 169.897 316.795,173.906 320.968,175.839 328.009 C 178.327 337.069,175.193 348.083,168.907 352.371 C 165.136 354.943,163.522 355.280,153.991 355.489 L 145.266 355.680 144.831 354.536 C 144.033 352.435,144.261 316.334,145.080 315.164 C 145.867 314.040,159.359 313.935,163.362 315.021 M207.066 314.906 C 207.402 315.783,207.402 317.838,207.066 318.715 C 206.840 319.303,205.689 319.397,198.661 319.397 L 190.517 319.397 190.517 325.216 L 190.517 331.034 197.167 331.034 C 204.492 331.034,205.172 331.254,205.172 333.616 C 205.172 336.248,205.293 336.207,197.573 336.207 L 190.496 336.207 190.615 343.427 L 190.733 350.647 198.675 350.764 C 203.642 350.838,206.831 351.060,207.188 351.356 C 207.900 351.947,207.935 354.392,207.241 355.086 C 206.506 355.822,185.735 355.822,185.000 355.086 C 184.255 354.342,184.255 315.486,185.000 314.741 C 185.879 313.863,206.725 314.018,207.066 314.906 M233.324 314.947 C 243.181 318.133,244.352 331.407,235.088 334.930 L 234.014 335.338 235.527 336.666 C 236.768 337.756,240.086 343.545,240.086 344.621 C 240.086 344.782,240.370 345.524,240.716 346.271 C 244.342 354.094,244.390 355.606,241.010 355.597 C 237.767 355.588,237.866 355.694,235.564 349.783 C 231.197 338.570,230.260 337.500,224.806 337.500 L 221.983 337.500 221.976 346.013 C 221.968 355.972,222.064 355.692,218.710 355.519 L 216.164 355.388 216.052 335.439 C 215.964 319.879,216.059 315.354,216.483 314.874 C 217.327 313.915,230.306 313.971,233.324 314.947 M268.207 315.194 C 268.556 315.727,268.978 316.649,269.146 317.241 C 269.314 317.834,269.615 318.707,269.815 319.181 C 270.214 320.122,274.628 332.395,275.939 336.207 C 276.387 337.511,276.928 338.966,277.140 339.440 C 277.351 339.914,277.919 341.466,278.401 342.888 C 278.883 344.310,279.894 347.123,280.649 349.138 C 281.403 351.153,282.111 353.432,282.221 354.203 L 282.422 355.603 279.626 355.603 C 276.384 355.603,276.204 355.459,275.029 351.900 C 274.566 350.499,273.828 348.384,273.388 347.198 L 272.589 345.043 264.375 344.926 L 256.162 344.809 255.249 347.512 C 252.379 356.009,252.662 355.603,249.600 355.603 C 246.072 355.603,246.040 355.432,248.402 349.138 C 248.981 347.597,250.564 343.233,251.921 339.440 C 253.278 335.647,254.545 332.155,254.736 331.681 C 255.022 330.974,257.138 325.134,259.580 318.319 C 261.072 314.154,260.989 314.224,264.439 314.224 C 267.214 314.224,267.646 314.335,268.207 315.194 M294.310 314.741 C 294.696 315.127,294.828 319.741,294.828 332.845 L 294.828 350.431 302.069 350.431 C 310.458 350.431,311.568 351.053,310.083 354.922 C 309.743 355.809,290.188 355.963,289.310 355.086 C 288.747 354.523,288.524 315.068,289.080 314.511 C 289.577 314.015,293.768 314.199,294.310 314.741 M150.647 334.758 C 150.647 344.565,150.804 350.331,151.078 350.532 C 152.515 351.589,161.363 350.386,164.164 348.753 C 171.808 344.297,172.475 327.636,165.229 322.154 C 162.101 319.788,161.682 319.666,156.034 319.479 L 150.647 319.301 150.647 334.758 M221.983 325.919 L 221.983 332.441 226.447 332.242 C 232.714 331.963,234.914 330.250,234.914 325.647 C 234.914 321.036,232.668 319.397,226.350 319.397 L 221.983 319.397 221.983 325.919 M263.862 322.031 C 263.034 324.241,257.759 339.980,257.759 340.241 C 257.759 340.393,260.668 340.517,264.224 340.517 C 268.707 340.517,270.690 340.369,270.690 340.035 C 270.690 339.536,264.663 321.466,264.398 321.169 C 264.316 321.077,264.075 321.464,263.862 322.031 " stroke="none" fill="#222222" fill-rule="evenodd"></path><path id="path1" d="M20.553 0.695 C 20.813 1.374,21.386 1.478,21.737 0.911 C 21.867 0.701,21.602 0.432,21.148 0.313 C 20.571 0.162,20.392 0.277,20.553 0.695 M373.599 0.297 C 373.184 0.406,372.845 0.674,372.845 0.894 C 372.845 1.503,373.537 1.370,374.138 0.647 C 374.433 0.291,374.602 0.023,374.514 0.050 C 374.426 0.078,374.014 0.189,373.599 0.297 M18.564 1.347 C 18.808 1.805,19.193 2.065,19.418 1.926 C 20.087 1.513,19.887 0.978,18.973 0.739 C 18.242 0.548,18.183 0.636,18.564 1.347 M378.605 3.189 C 379.940 4.402,381.466 5.001,381.466 4.310 C 381.466 4.073,381.154 3.879,380.773 3.879 C 380.392 3.879,380.173 3.637,380.286 3.341 C 380.418 2.994,380.061 2.786,379.287 2.757 C 378.382 2.724,378.213 2.831,378.605 3.189 M11.849 4.748 C 11.700 4.989,11.349 5.055,11.069 4.895 C 10.789 4.734,10.704 4.762,10.880 4.956 C 11.283 5.401,10.378 6.537,9.870 6.223 C 9.662 6.095,9.601 6.273,9.734 6.620 C 10.010 7.338,8.493 7.997,7.696 7.504 C 7.382 7.311,7.311 7.382,7.504 7.696 C 7.997 8.493,7.338 10.010,6.620 9.734 C 6.273 9.601,6.095 9.662,6.223 9.870 C 6.497 10.313,5.441 11.298,5.025 10.988 C 4.869 10.871,4.837 10.903,4.953 11.059 C 5.070 11.215,4.945 11.608,4.676 11.932 C 4.407 12.256,4.326 12.660,4.496 12.829 C 4.666 12.999,5.468 12.364,6.279 11.418 C 8.433 8.906,9.633 7.698,11.377 6.283 C 12.902 5.046,13.330 4.310,12.525 4.310 C 12.302 4.310,11.998 4.507,11.849 4.748 M382.328 5.574 C 382.328 5.795,382.716 6.100,383.190 6.250 C 383.664 6.400,384.052 6.684,384.052 6.879 C 384.052 7.075,384.301 7.331,384.606 7.448 C 384.929 7.572,385.160 7.342,385.160 6.897 C 385.160 6.476,384.942 6.216,384.675 6.319 C 384.408 6.421,383.941 6.205,383.637 5.839 C 383.021 5.097,382.328 4.957,382.328 5.574 M387.127 9.007 C 386.661 9.302,386.787 9.658,387.737 10.724 C 389.075 12.225,389.452 12.357,389.803 11.444 C 389.951 11.058,389.835 10.899,389.498 11.029 C 388.805 11.294,387.322 9.688,387.699 9.079 C 388.039 8.528,387.908 8.512,387.127 9.007 M0.746 18.998 C 0.995 19.952,1.724 20.123,1.724 19.227 C 1.724 18.897,1.455 18.523,1.126 18.397 C 0.707 18.236,0.593 18.416,0.746 18.998 M393.211 18.389 C 392.601 18.635,392.470 19.828,393.053 19.828 C 393.263 19.828,393.535 19.440,393.659 18.966 C 393.783 18.491,393.854 18.119,393.817 18.137 C 393.780 18.156,393.508 18.269,393.211 18.389 M394.021 20.646 C 393.696 20.852,393.518 21.285,393.625 21.608 C 393.762 22.018,393.978 21.902,394.339 21.227 C 394.913 20.156,394.882 20.101,394.021 20.646 M394.504 23.130 C 393.894 23.377,393.763 24.569,394.346 24.569 C 394.556 24.569,394.828 24.181,394.952 23.707 C 395.076 23.233,395.148 22.860,395.111 22.879 C 395.073 22.898,394.801 23.011,394.504 23.130 M84.146 315.165 C 83.394 315.916,83.387 354.335,84.138 355.086 C 84.422 355.371,85.353 355.603,86.207 355.603 C 88.748 355.603,88.793 355.436,88.793 346.043 C 88.793 335.981,87.748 337.111,97.198 336.958 L 103.664 336.853 103.664 334.914 L 103.664 332.974 96.218 332.856 L 88.771 332.738 88.890 325.960 L 89.009 319.181 96.654 319.063 L 104.299 318.946 104.556 317.922 C 104.697 317.359,104.748 316.442,104.669 315.884 L 104.526 314.871 94.598 314.755 C 87.239 314.670,84.535 314.776,84.146 315.165 M113.887 315.165 C 112.905 316.147,113.156 353.990,114.150 354.890 C 114.837 355.511,116.249 355.603,125.095 355.603 L 135.251 355.603 135.536 354.471 C 135.692 353.847,135.698 352.781,135.548 352.100 L 135.276 350.862 126.895 350.862 L 118.514 350.862 118.632 343.427 L 118.750 335.991 125.862 335.776 L 132.974 335.560 133.111 334.131 C 133.355 331.597,132.973 331.466,125.378 331.466 L 118.534 331.466 118.534 325.225 L 118.534 318.984 126.832 318.867 L 135.129 318.750 135.129 316.810 L 135.129 314.871 124.770 314.755 C 117.075 314.670,114.277 314.775,113.887 315.165 M145.265 315.716 C 144.475 317.795,144.689 353.489,145.499 354.645 C 146.910 356.661,161.518 355.662,166.532 353.207 C 178.712 347.243,179.315 323.694,167.457 317.123 C 163.803 315.098,162.964 314.948,154.209 314.754 L 145.702 314.565 145.265 315.716 M185.345 315.077 C 184.448 315.643,184.155 352.596,185.034 354.310 L 185.586 355.388 196.133 355.388 L 206.681 355.388 206.681 353.233 L 206.681 351.078 198.276 350.862 L 189.871 350.647 189.871 343.319 L 189.871 335.991 197.085 335.873 L 204.299 335.755 204.575 334.656 C 205.297 331.780,204.639 331.499,196.889 331.369 L 189.871 331.250 189.871 325.216 L 189.871 319.181 197.813 319.063 C 206.975 318.927,207.868 318.550,206.635 315.337 C 206.332 314.547,186.566 314.305,185.345 315.077 M216.918 315.139 C 216.154 315.920,216.133 354.323,216.897 355.086 C 217.532 355.721,219.592 355.760,220.718 355.157 C 221.501 354.738,221.552 354.170,221.552 345.890 L 221.552 337.069 224.618 337.069 C 230.561 337.069,231.582 338.246,236.367 350.611 C 238.063 354.994,238.423 355.388,240.727 355.388 C 243.581 355.388,243.602 355.065,241.145 348.843 C 237.950 340.752,236.812 338.578,234.931 336.968 L 233.199 335.486 234.380 334.890 C 242.795 330.642,242.983 319.367,234.698 315.695 C 232.446 314.697,217.799 314.239,216.918 315.139 M261.284 315.409 C 261.072 315.824,260.372 317.619,259.728 319.397 C 259.084 321.175,258.292 323.308,257.969 324.138 C 257.645 324.968,256.771 327.392,256.025 329.526 C 253.697 336.189,252.524 339.391,251.898 340.798 C 251.565 341.545,251.293 342.306,251.293 342.490 C 251.293 342.674,250.317 345.429,249.123 348.613 C 246.711 355.051,246.745 355.603,249.555 355.603 C 251.694 355.603,252.132 354.986,253.903 349.471 L 255.388 344.846 264.229 344.837 L 273.071 344.828 274.340 348.599 C 276.579 355.251,276.827 355.603,279.273 355.603 C 282.389 355.603,282.399 355.454,279.731 348.276 C 277.869 343.267,275.015 335.408,274.487 333.836 C 274.248 333.125,273.781 331.932,273.449 331.185 C 273.117 330.438,272.845 329.694,272.845 329.531 C 272.845 328.951,267.962 315.723,267.553 315.194 C 266.865 314.305,261.757 314.480,261.284 315.409 M289.511 314.943 C 288.683 315.771,289.212 354.705,290.058 355.157 C 291.292 355.818,308.729 355.753,309.397 355.086 C 309.949 354.534,310.083 352.668,309.652 351.544 C 309.427 350.958,308.332 350.862,301.894 350.862 L 294.397 350.862 294.397 333.276 C 294.397 320.172,294.265 315.558,293.879 315.172 C 293.334 314.627,290.002 314.452,289.511 314.943 M161.678 319.666 C 168.721 321.970,172.193 330.461,170.125 340.325 C 168.552 347.825,164.356 350.797,155.280 350.838 L 150.000 350.862 150.000 335.201 C 150.000 326.588,150.129 319.411,150.287 319.253 C 150.893 318.647,159.520 318.960,161.678 319.666 M231.525 319.504 C 234.430 321.039,235.345 322.551,235.345 325.819 C 235.345 330.403,232.022 332.759,225.555 332.759 L 221.552 332.759 221.552 325.862 L 221.552 318.966 226.028 318.966 C 228.778 318.966,230.898 319.173,231.525 319.504 M265.015 321.659 C 265.317 322.430,266.218 325.000,267.017 327.371 C 267.815 329.741,269.150 333.611,269.983 335.969 C 271.874 341.327,272.315 340.948,264.199 340.948 C 255.994 340.948,256.474 341.774,259.511 332.894 C 260.712 329.382,262.080 325.345,262.549 323.922 C 263.019 322.500,263.485 321.094,263.585 320.797 C 263.896 319.872,264.444 320.203,265.015 321.659 M393.966 370.859 C 393.966 371.426,394.220 371.988,394.531 372.107 C 394.940 372.264,395.046 371.979,394.913 371.076 C 394.692 369.572,393.966 369.406,393.966 370.859 M0.332 373.457 C 0.191 374.196,0.299 374.427,0.714 374.268 C 1.368 374.017,1.490 373.018,0.911 372.660 C 0.701 372.530,0.441 372.889,0.332 373.457 M393.380 373.487 C 393.239 373.855,393.476 374.307,393.939 374.555 C 394.619 374.919,394.708 374.852,394.518 374.124 C 394.221 372.991,393.686 372.691,393.380 373.487 M391.826 377.558 C 391.200 378.726,391.270 379.075,392.007 378.464 C 392.352 378.177,392.856 378.080,393.128 378.248 C 393.497 378.476,393.498 378.323,393.131 377.638 C 392.530 376.514,392.389 376.505,391.826 377.558 M2.582 378.658 C 2.874 379.011,3.005 379.583,2.872 379.929 C 2.710 380.352,2.835 380.481,3.255 380.320 C 3.640 380.172,3.879 380.345,3.879 380.773 C 3.879 381.154,4.073 381.466,4.310 381.466 C 5.009 381.466,4.396 379.929,3.156 378.573 C 2.447 377.797,1.931 377.874,2.582 378.658 M389.864 381.159 C 388.377 382.933,387.501 384.230,387.507 384.649 C 387.510 384.919,387.678 384.869,387.889 384.535 C 388.096 384.209,388.479 384.073,388.740 384.234 C 389.038 384.419,389.119 384.279,388.958 383.859 C 388.731 383.267,389.170 382.996,390.150 383.124 C 390.303 383.144,390.321 382.746,390.188 382.240 C 390.001 381.523,390.101 381.379,390.642 381.586 C 391.128 381.773,391.264 381.666,391.096 381.228 C 390.808 380.478,390.451 380.458,389.864 381.159 M5.172 382.678 C 5.172 382.871,5.779 383.598,6.521 384.294 C 7.432 385.149,7.714 385.280,7.391 384.698 C 6.339 382.807,5.172 381.745,5.172 382.678 M385.067 386.772 C 384.041 387.820,381.553 389.791,380.975 390.014 C 380.398 390.237,380.537 390.830,381.228 391.096 C 381.666 391.264,381.773 391.128,381.586 390.642 C 381.378 390.098,381.523 390.001,382.255 390.192 C 382.770 390.327,383.096 390.283,382.979 390.095 C 382.693 389.631,383.837 388.722,384.222 389.107 C 384.390 389.275,384.407 389.097,384.259 388.711 C 383.970 387.957,385.402 387.218,386.198 387.710 C 386.447 387.864,386.520 387.694,386.371 387.307 C 386.230 386.938,386.340 386.638,386.617 386.638 C 386.894 386.638,387.000 386.444,386.853 386.207 C 386.472 385.590,386.114 385.703,385.067 386.772 M10.536 388.335 C 10.951 388.794,11.165 389.374,11.011 389.623 C 10.841 389.898,10.995 389.975,11.400 389.820 C 12.281 389.482,12.248 388.808,11.315 388.100 C 10.177 387.237,9.678 387.387,10.536 388.335 M377.375 391.969 C 376.599 392.537,376.606 392.579,377.561 393.090 C 378.251 393.459,378.460 393.471,378.248 393.128 C 378.080 392.856,378.177 392.352,378.464 392.007 C 379.122 391.214,378.440 391.190,377.375 391.969 M18.397 393.270 C 18.236 393.690,18.416 393.803,18.998 393.651 C 19.952 393.401,20.123 392.672,19.227 392.672 C 18.897 392.672,18.523 392.941,18.397 393.270 M373.132 393.391 C 372.586 393.937,372.848 394.397,373.707 394.397 C 374.186 394.397,374.569 394.109,374.569 393.750 C 374.569 393.094,373.657 392.866,373.132 393.391 M23.146 394.545 C 22.987 394.960,23.218 395.068,23.962 394.926 C 24.533 394.816,25.000 394.556,25.000 394.346 C 25.000 393.736,23.390 393.908,23.146 394.545 M370.073 394.348 C 369.943 394.559,370.396 394.813,371.080 394.914 C 371.980 395.046,372.264 394.940,372.107 394.531 C 371.862 393.892,370.434 393.764,370.073 394.348 " stroke="none" fill="#eeeeee" fill-rule="evenodd"></path><path id="path2" d="M35.591 20.641 C 35.461 20.851,34.693 21.147,33.884 21.299 C 32.046 21.644,29.818 22.705,28.572 23.829 C 28.048 24.302,27.179 24.908,26.641 25.176 C 26.103 25.444,25.444 26.103,25.176 26.641 C 24.908 27.179,24.295 28.048,23.814 28.572 C 22.739 29.743,21.121 33.265,21.121 34.434 C 21.121 34.907,20.927 35.414,20.690 35.560 C 20.404 35.737,20.259 76.298,20.259 155.844 L 20.259 275.862 197.421 275.862 L 374.584 275.862 374.561 155.789 C 374.549 88.810,374.374 35.396,374.165 34.992 C 373.959 34.593,373.181 32.963,372.434 31.369 C 370.883 28.056,367.516 24.140,365.323 23.099 C 364.502 22.710,363.723 22.219,363.594 22.009 C 363.464 21.799,362.584 21.496,361.638 21.336 C 360.692 21.176,359.809 20.869,359.675 20.652 C 359.355 20.134,35.911 20.123,35.591 20.641 M100.979 81.718 C 101.872 82.053,103.030 82.328,103.550 82.328 C 104.071 82.328,105.279 82.597,106.236 82.926 C 107.984 83.529,111.424 84.324,114.224 84.774 C 116.972 85.215,117.394 86.356,116.187 90.086 C 115.412 92.481,114.321 97.374,113.952 100.108 C 113.640 102.418,113.603 102.431,110.060 101.509 C 108.664 101.145,105.684 100.859,103.250 100.856 C 100.583 100.852,98.261 100.611,97.198 100.228 C 96.250 99.886,94.689 99.598,93.728 99.588 C 91.672 99.566,90.948 98.978,90.948 97.333 C 90.948 96.395,90.560 95.887,89.177 95.014 C 87.582 94.006,87.432 93.765,87.669 92.584 C 87.813 91.862,87.931 89.259,87.931 86.800 C 87.931 82.152,88.621 81.035,90.395 82.809 C 90.870 83.284,91.924 83.938,93.905 84.987 C 95.215 85.681,96.295 84.453,95.945 82.665 C 95.542 80.596,97.172 80.289,100.979 81.718 M322.878 85.312 C 323.571 86.005,324.144 86.926,324.152 87.359 C 324.159 87.792,324.450 88.523,324.798 88.983 C 325.146 89.443,325.438 90.316,325.446 90.923 C 325.456 91.686,326.254 92.815,328.032 94.585 C 331.210 97.748,330.880 99.895,327.029 101.118 C 325.938 101.464,323.710 103.455,323.700 104.093 C 323.696 104.331,322.774 105.496,321.652 106.681 C 320.530 107.866,319.316 109.610,318.955 110.557 C 318.593 111.503,318.011 112.331,317.662 112.398 C 316.737 112.573,314.108 107.065,313.542 103.767 C 313.389 102.875,313.092 102.039,312.882 101.909 C 312.311 101.557,312.421 100.096,313.099 99.015 C 313.876 97.777,314.527 94.699,315.028 89.897 C 315.471 85.644,316.095 84.688,318.134 85.136 C 318.869 85.297,319.451 85.152,319.812 84.717 C 320.626 83.736,321.466 83.899,322.878 85.312 M120.410 88.587 C 120.374 89.530,120.213 91.175,120.052 92.241 C 119.730 94.370,120.393 96.191,122.934 100.163 L 124.279 102.266 123.503 104.548 C 122.612 107.169,122.758 107.847,124.438 108.889 C 126.084 109.909,126.724 110.758,126.724 111.923 C 126.724 115.078,128.800 117.035,131.985 116.879 C 135.600 116.702,136.380 117.258,136.028 119.762 C 135.873 120.865,135.575 123.377,135.365 125.345 C 134.817 130.483,133.622 130.986,126.078 129.257 C 125.129 129.040,122.705 128.573,120.690 128.220 C 118.675 127.867,115.668 127.328,114.009 127.022 L 110.991 126.465 110.857 124.369 C 110.783 123.216,111.026 121.346,111.396 120.215 C 111.766 119.083,112.069 117.964,112.069 117.727 C 112.069 117.491,112.296 116.751,112.575 116.084 C 112.853 115.417,113.100 114.083,113.125 113.121 C 113.160 111.773,113.544 110.914,114.801 109.380 C 116.543 107.254,117.050 104.560,115.955 103.241 C 115.354 102.517,115.525 100.414,116.553 95.905 C 116.931 94.246,117.468 91.724,117.745 90.302 C 118.540 86.234,120.547 84.943,120.410 88.587 M130.136 88.597 C 130.770 88.850,133.743 89.341,141.810 90.528 C 143.588 90.789,146.894 91.282,149.157 91.622 C 151.419 91.963,154.302 92.241,155.564 92.241 C 156.825 92.241,159.920 92.550,162.441 92.927 C 169.932 94.047,169.130 93.492,168.808 97.329 C 168.655 99.154,168.403 103.718,168.249 107.472 C 167.887 116.248,167.988 116.154,160.129 115.075 C 158.470 114.847,154.300 114.365,150.862 114.004 C 147.425 113.643,143.739 113.166,142.672 112.943 C 139.457 112.271,137.868 112.409,136.755 113.455 C 133.977 116.064,129.883 114.141,128.600 109.624 C 128.145 108.023,127.477 106.641,127.047 106.410 C 126.195 105.951,126.076 104.507,126.745 102.746 C 127.119 101.763,127.046 101.364,126.328 100.455 C 122.355 95.421,120.597 89.324,122.737 87.998 C 123.291 87.656,128.916 88.111,130.136 88.597 M182.890 94.399 C 185.925 94.635,190.193 94.831,192.373 94.834 C 197.035 94.842,197.463 95.040,197.606 97.250 C 197.666 98.170,198.031 100.474,198.418 102.371 C 198.804 104.267,199.173 106.983,199.237 108.405 L 199.353 110.991 195.905 111.131 C 192.232 111.279,176.087 110.476,172.845 109.983 L 170.905 109.689 170.992 103.659 C 171.129 94.089,171.422 93.389,175.139 93.753 C 176.366 93.873,179.854 94.164,182.890 94.399 M207.876 95.690 C 208.479 96.164,209.391 96.552,209.902 96.552 C 210.414 96.552,211.214 96.756,211.680 97.006 C 212.290 97.332,212.947 97.308,214.014 96.922 C 215.345 96.441,215.602 96.478,216.478 97.277 C 217.978 98.643,219.091 99.094,221.722 99.404 C 224.096 99.683,224.834 100.374,223.599 101.164 C 221.429 102.552,218.103 106.932,218.103 108.402 C 218.103 109.439,217.713 110.484,216.951 111.483 C 215.909 112.848,215.847 113.129,216.304 114.394 C 216.583 115.164,216.810 116.780,216.810 117.985 C 216.810 120.102,216.873 120.215,218.642 121.289 C 224.734 124.987,224.336 125.313,213.270 125.690 C 202.455 126.057,202.969 126.280,203.314 121.383 C 203.497 118.793,203.406 117.550,202.977 116.783 C 202.653 116.205,202.250 114.278,202.082 112.500 C 201.820 109.744,201.315 105.900,200.141 97.729 C 199.796 95.323,200.432 94.828,203.874 94.828 C 206.128 94.828,207.026 95.021,207.876 95.690 M88.408 98.218 C 88.830 100.281,89.642 100.894,92.513 101.317 C 93.905 101.523,95.625 101.799,96.336 101.932 C 97.047 102.065,100.054 102.353,103.017 102.571 C 114.348 103.406,115.964 104.645,111.852 109.346 C 110.099 111.349,109.915 111.768,109.953 113.649 C 110.003 116.121,109.464 119.114,107.929 124.892 C 107.740 125.604,105.592 125.578,103.565 124.839 C 102.671 124.514,100.970 124.044,99.784 123.795 C 95.575 122.913,93.290 122.378,91.056 121.754 C 85.652 120.242,84.192 119.856,82.974 119.613 C 77.107 118.442,76.685 116.727,80.722 110.461 C 81.368 109.458,81.897 108.510,81.897 108.353 C 81.897 108.197,82.263 107.271,82.712 106.297 C 84.032 103.427,84.848 101.179,85.154 99.569 C 85.740 96.485,87.872 95.600,88.408 98.218 M236.853 102.586 C 237.000 102.823,237.469 103.017,237.896 103.017 C 238.323 103.017,239.387 103.502,240.261 104.095 C 242.349 105.512,242.997 105.463,246.874 103.599 L 250.145 102.025 250.896 102.952 C 251.309 103.462,252.059 103.879,252.563 103.879 C 255.146 103.879,256.423 106.260,254.512 107.512 C 253.196 108.375,253.420 108.886,255.285 109.281 C 259.526 110.177,261.724 115.474,259.041 118.331 C 258.127 119.303,257.897 120.690,258.649 120.690 C 258.901 120.690,259.597 120.108,260.195 119.397 C 261.935 117.330,263.158 117.632,264.445 120.447 C 265.736 123.267,265.848 125.860,264.723 126.878 C 264.287 127.273,263.562 128.677,263.113 129.999 C 262.038 133.163,261.037 133.580,253.448 134.033 C 246.695 134.436,247.177 134.588,247.768 132.236 C 248.276 130.213,247.906 126.256,247.063 124.705 C 245.263 121.393,246.771 115.027,250.298 111.053 C 251.319 109.901,252.155 108.832,252.155 108.678 C 252.155 107.953,250.277 107.262,249.402 107.664 C 246.961 108.786,245.784 109.263,244.431 109.682 C 243.372 110.009,242.837 110.500,242.529 111.427 C 241.624 114.153,240.111 114.344,239.409 111.819 L 238.940 110.129 234.859 109.052 C 227.975 107.234,227.218 106.171,231.341 104.111 C 232.577 103.494,233.703 102.801,233.845 102.572 C 234.184 102.023,236.512 102.034,236.853 102.586 M311.607 104.153 C 312.098 104.778,312.500 105.670,312.500 106.135 C 312.500 106.969,313.161 108.709,314.578 111.602 C 314.975 112.412,315.236 113.450,315.159 113.908 C 315.076 114.394,315.411 115.017,315.961 115.402 C 316.718 115.932,316.858 116.351,316.669 117.514 C 316.539 118.312,316.608 118.966,316.821 118.966 C 317.034 118.966,317.593 119.379,318.063 119.884 C 318.614 120.475,319.235 120.720,319.804 120.571 C 320.464 120.398,320.690 120.544,320.690 121.146 C 320.690 122.903,316.162 123.845,314.396 122.456 C 313.772 121.965,313.092 121.668,312.887 121.795 C 312.681 121.922,311.491 122.193,310.243 122.398 C 308.995 122.602,307.444 122.904,306.795 123.068 C 305.331 123.438,304.527 121.854,305.085 119.698 C 305.379 118.565,305.709 118.292,307.136 118.004 C 309.928 117.440,309.970 117.406,309.411 116.178 C 308.853 114.954,308.398 114.804,307.888 115.676 C 306.366 118.281,304.645 116.201,303.013 109.787 C 301.910 105.451,301.798 105.736,305.037 104.642 C 308.241 103.561,308.548 103.920,308.342 108.507 C 308.199 111.690,308.222 111.790,308.818 110.560 C 309.162 109.849,309.453 107.990,309.463 106.430 C 309.489 102.672,310.008 102.121,311.607 104.153 M300.593 108.082 C 300.714 108.497,300.950 109.801,301.116 110.980 C 301.283 112.159,301.962 114.005,302.624 115.082 C 304.151 117.563,304.639 126.396,303.303 127.372 C 302.339 128.078,302.400 128.749,303.482 129.328 C 305.053 130.169,305.623 129.572,305.325 127.398 C 305.028 125.236,305.606 124.756,309.100 124.261 C 310.541 124.057,310.693 124.143,311.137 125.415 C 311.400 126.170,311.806 126.671,312.039 126.527 C 312.272 126.383,312.366 126.014,312.248 125.707 C 311.716 124.320,312.844 122.823,314.018 123.358 C 315.886 124.210,315.400 126.769,313.257 127.367 C 312.370 127.615,311.340 128.250,310.970 128.779 C 310.599 129.309,309.958 129.741,309.545 129.741 C 309.131 129.741,308.560 129.974,308.276 130.258 C 307.992 130.543,307.131 130.979,306.363 131.228 C 304.814 131.731,304.252 133.097,305.344 133.708 C 306.586 134.403,305.739 140.014,304.079 142.080 L 303.084 143.319 301.629 141.918 C 299.940 140.291,299.569 140.194,299.569 141.379 C 299.569 141.853,299.847 142.241,300.186 142.241 C 300.526 142.241,300.927 142.629,301.078 143.103 C 301.228 143.578,301.513 143.966,301.711 143.966 C 302.561 143.966,302.726 149.263,301.895 149.871 C 301.348 150.271,301.139 150.888,301.222 151.856 C 301.371 153.588,300.599 155.758,299.972 155.371 C 299.719 155.214,299.538 153.990,299.571 152.651 C 299.664 148.837,297.821 146.333,296.827 148.922 C 296.140 150.713,292.243 149.327,292.239 147.291 C 292.236 145.922,291.245 144.978,288.648 143.872 C 287.447 143.360,283.138 144.165,282.678 144.987 C 281.997 146.205,280.603 145.866,280.603 144.483 C 280.603 142.822,281.331 142.241,283.409 142.241 C 284.383 142.241,285.557 141.957,286.017 141.609 C 286.484 141.255,287.805 140.968,289.009 140.959 C 290.194 140.950,291.719 140.653,292.398 140.299 C 294.247 139.335,296.578 139.449,296.858 140.517 C 297.179 141.746,297.689 141.584,298.211 140.086 C 298.493 139.277,298.961 138.793,299.460 138.793 C 300.550 138.793,301.595 136.012,300.845 135.108 C 300.084 134.192,299.569 134.344,299.569 135.484 C 299.569 136.493,296.704 138.362,295.156 138.362 C 294.796 138.362,293.805 138.653,292.954 139.009 C 292.103 139.364,290.619 139.655,289.655 139.655 C 288.692 139.655,287.207 139.946,286.356 140.302 C 285.505 140.657,284.105 140.953,283.245 140.959 C 282.385 140.964,280.918 141.146,279.985 141.362 C 277.359 141.971,276.965 141.524,276.328 137.206 C 276.020 135.115,275.671 132.777,275.553 132.009 C 275.305 130.401,275.152 130.479,279.957 129.759 C 281.853 129.475,284.278 128.981,285.345 128.662 C 296.726 125.255,298.276 125.486,298.276 130.588 C 298.276 132.867,299.034 135.572,299.163 133.754 C 299.378 130.715,299.706 129.463,300.471 128.750 L 301.359 127.922 300.141 126.742 C 297.595 124.277,295.111 124.142,288.886 126.133 C 287.870 126.458,286.512 126.726,285.869 126.729 C 285.225 126.732,283.692 127.002,282.461 127.330 C 280.189 127.935,279.468 127.828,280.099 126.979 C 280.479 126.467,281.370 123.571,281.565 122.217 C 281.713 121.182,283.015 120.789,286.480 120.733 C 290.050 120.675,292.522 118.308,292.056 115.395 C 291.733 113.375,293.331 109.658,294.962 108.634 C 297.057 107.318,300.278 107.003,300.593 108.082 M228.576 109.525 C 229.949 110.199,232.083 110.884,233.317 111.047 C 236.926 111.523,238.562 113.438,238.188 116.747 C 237.943 118.910,238.030 119.407,238.833 120.427 C 239.609 121.413,239.707 121.904,239.429 123.411 C 239.246 124.404,239.076 126.356,239.052 127.750 C 238.999 130.858,238.804 130.963,232.797 131.131 C 227.747 131.272,226.989 130.856,226.513 127.678 C 225.972 124.071,224.123 121.588,220.472 119.567 C 219.141 118.830,218.686 113.083,219.859 111.826 C 220.316 111.336,220.690 110.425,220.690 109.800 C 220.690 107.439,224.086 107.321,228.576 109.525 M187.500 113.194 C 198.020 113.474,198.544 113.592,199.719 115.947 C 200.531 117.574,200.824 125.233,200.123 126.513 C 199.862 126.990,199.744 127.875,199.859 128.479 C 200.140 129.949,199.154 130.773,197.785 130.212 C 196.398 129.645,187.991 128.947,178.879 128.644 C 174.731 128.506,170.871 128.298,170.302 128.181 L 169.268 127.969 169.508 121.420 C 169.653 117.450,169.969 114.384,170.310 113.635 L 170.874 112.400 174.338 112.668 C 176.243 112.815,182.166 113.052,187.500 113.194 M144.830 115.541 C 146.309 115.988,155.203 117.018,162.572 117.595 C 164.627 117.756,166.453 118.033,166.631 118.211 C 167.475 119.056,166.307 138.547,165.352 139.549 C 164.839 140.087,152.661 139.587,151.692 138.989 C 151.478 138.856,149.141 138.573,146.500 138.358 C 141.245 137.931,137.010 137.137,136.576 136.498 C 136.184 135.919,136.615 131.264,137.328 128.386 C 137.660 127.048,137.931 125.147,137.931 124.161 C 137.931 122.653,138.851 117.501,139.455 115.625 C 139.669 114.960,142.750 114.912,144.830 115.541 M81.866 121.576 C 83.424 122.064,85.571 122.715,86.638 123.024 C 94.282 125.234,94.363 125.291,93.521 127.841 C 93.234 128.713,92.731 130.563,92.404 131.954 C 92.078 133.345,91.501 135.695,91.123 137.177 C 89.853 142.150,89.975 143.578,91.810 145.259 C 92.050 145.478,93.383 147.467,94.176 148.787 C 94.777 149.788,97.365 153.500,99.980 157.112 C 101.181 158.772,102.295 160.420,102.456 160.776 C 102.616 161.131,104.227 163.362,106.036 165.733 C 110.914 172.125,111.848 174.669,110.345 177.474 C 109.871 178.358,109.483 179.304,109.483 179.574 C 109.483 179.845,109.192 180.308,108.836 180.603 C 108.472 180.906,108.190 181.846,108.190 182.759 C 108.190 185.221,107.603 185.464,102.117 185.277 C 96.422 185.082,95.259 184.330,95.259 180.843 C 95.259 179.222,95.057 178.814,93.742 177.765 C 92.907 177.100,91.747 175.741,91.164 174.745 C 90.580 173.750,89.566 172.713,88.909 172.442 C 84.770 170.731,81.695 167.849,82.089 166.051 C 82.379 164.734,81.995 163.540,80.602 161.422 C 80.134 160.711,79.631 159.838,79.484 159.483 C 79.338 159.127,78.950 158.229,78.622 157.487 C 78.158 156.438,78.133 155.832,78.507 154.758 C 78.881 153.684,78.858 153.136,78.400 152.280 C 78.074 151.671,77.827 150.022,77.847 148.583 C 77.874 146.601,77.694 145.797,77.088 145.191 C 76.651 144.754,76.293 144.099,76.293 143.735 C 76.293 143.371,75.955 142.558,75.542 141.927 C 74.968 141.051,74.762 139.661,74.665 136.016 C 74.595 133.395,74.509 130.377,74.475 129.310 C 74.437 128.119,74.884 126.081,75.632 124.030 C 77.045 120.159,77.176 120.108,81.866 121.576 M102.371 127.029 C 103.793 127.400,105.927 127.838,107.112 128.002 C 108.297 128.166,110.043 128.513,110.991 128.774 C 111.940 129.035,114.073 129.468,115.733 129.737 C 119.461 130.341,120.889 131.164,120.477 132.472 C 120.315 132.985,119.926 134.957,119.613 136.853 C 118.331 144.619,117.994 146.445,117.416 148.735 C 117.083 150.055,116.810 151.748,116.810 152.498 C 116.810 153.248,116.528 155.369,116.184 157.211 C 115.839 159.053,115.443 161.288,115.302 162.177 C 115.086 163.550,114.883 163.793,113.961 163.793 C 112.286 163.793,111.347 164.496,111.052 165.970 C 110.669 167.883,110.069 167.471,107.208 163.329 C 105.829 161.332,104.162 158.922,103.504 157.974 C 102.846 157.026,101.051 154.407,99.514 152.155 C 97.977 149.903,95.790 146.734,94.653 145.113 C 93.039 142.813,92.638 141.915,92.825 141.019 C 92.957 140.387,93.237 138.998,93.447 137.931 C 93.658 136.864,94.051 135.216,94.320 134.267 C 94.590 133.319,95.110 131.296,95.476 129.773 C 96.521 125.427,96.406 125.473,102.371 127.029 M224.493 129.885 C 224.947 130.912,226.120 132.545,227.099 133.515 C 229.310 135.704,229.317 136.217,227.155 137.716 C 225.596 138.796,225.431 139.088,225.431 140.766 C 225.431 143.450,224.769 143.596,212.069 143.699 L 205.819 143.750 205.338 141.379 C 204.789 138.674,203.578 134.626,202.986 133.519 C 202.398 132.419,202.499 129.488,203.143 128.954 C 203.788 128.418,206.952 128.219,216.682 128.102 L 223.667 128.017 224.493 129.885 M313.512 130.067 C 314.049 130.935,310.088 134.052,308.448 134.052 C 306.918 134.052,306.655 133.287,307.774 132.096 C 309.113 130.670,313.029 129.285,313.512 130.067 M184.336 131.254 C 189.745 131.417,192.062 131.651,192.957 132.126 C 193.707 132.524,194.765 132.687,195.690 132.547 C 197.718 132.241,200.479 133.802,201.039 135.570 C 201.262 136.276,201.992 138.274,202.662 140.011 C 203.475 142.120,203.879 143.967,203.879 145.574 L 203.879 147.979 191.918 147.710 C 177.299 147.381,177.325 147.386,177.505 144.635 C 177.702 141.615,176.930 140.948,173.233 140.948 C 170.806 140.948,170.111 140.780,169.161 139.963 L 168.015 138.977 168.484 135.143 C 169.044 130.567,169.098 130.521,173.491 130.807 C 175.388 130.930,180.268 131.132,184.336 131.254 M130.308 132.287 C 133.816 132.639,134.139 133.008,133.786 136.259 C 133.474 139.121,133.359 139.022,137.685 139.624 C 142.820 140.338,142.586 139.729,141.421 149.353 C 139.728 163.331,139.974 162.907,134.114 161.944 C 124.964 160.440,123.829 160.259,121.400 159.919 C 117.939 159.435,117.772 159.187,118.661 155.853 C 119.065 154.334,119.397 152.490,119.397 151.755 C 119.397 151.019,119.672 149.306,120.009 147.946 C 120.590 145.598,120.920 143.784,122.155 136.129 C 122.836 131.909,123.323 131.286,125.626 131.688 C 126.585 131.855,128.692 132.125,130.308 132.287 M239.978 133.944 C 242.055 136.972,243.709 154.160,242.154 156.556 C 241.801 157.099,241.398 158.416,241.257 159.483 C 240.794 162.993,237.298 165.082,236.573 162.282 C 236.388 161.570,235.805 160.698,235.277 160.343 C 233.428 159.101,232.250 157.720,232.504 157.093 C 232.644 156.748,232.873 156.183,233.013 155.838 C 233.159 155.479,232.817 154.788,232.212 154.222 C 231.632 153.678,230.150 152.289,228.920 151.135 C 226.260 148.642,225.839 147.258,227.038 144.950 C 227.504 144.053,228.023 142.583,228.190 141.683 C 228.399 140.561,228.813 139.902,229.506 139.586 C 230.656 139.062,231.885 136.519,231.763 134.917 C 231.682 133.850,233.074 133.426,238.656 132.814 C 238.936 132.784,239.531 133.292,239.978 133.944 M273.261 134.023 C 273.506 134.482,273.707 136.884,273.707 139.362 L 273.707 143.866 271.999 145.532 C 271.059 146.449,269.832 148.071,269.272 149.138 L 268.253 151.078 264.945 151.203 C 260.650 151.367,257.759 149.955,257.759 147.693 C 257.759 146.944,257.578 145.700,257.357 144.930 C 255.008 136.740,256.893 134.067,263.635 136.027 C 266.156 136.760,267.693 136.316,270.624 134.011 C 271.950 132.968,272.698 132.971,273.261 134.023 M254.388 140.948 C 255.618 148.330,255.472 151.772,253.879 152.949 C 253.168 153.475,252.586 154.129,252.586 154.403 C 252.586 155.111,250.824 156.897,250.125 156.897 C 249.803 156.897,249.074 157.201,248.507 157.573 C 247.007 158.555,244.549 158.249,244.809 157.112 C 245.202 155.396,244.971 147.444,244.404 143.162 C 243.583 136.960,244.449 136.202,252.141 136.387 L 253.635 136.422 254.388 140.948 M153.583 141.566 C 155.998 141.906,161.272 142.404,165.302 142.672 C 173.359 143.209,174.834 143.618,174.695 145.273 C 174.646 145.858,174.431 150.431,174.218 155.437 C 174.005 160.442,173.694 164.758,173.528 165.027 C 173.163 165.617,169.067 165.642,163.362 165.090 C 161.110 164.872,156.164 164.394,152.371 164.027 C 141.186 162.946,141.499 163.194,142.857 156.488 C 143.230 154.650,143.534 152.367,143.534 151.414 C 143.534 149.791,144.612 142.675,145.038 141.487 C 145.295 140.772,148.125 140.798,153.583 141.566 M295.436 143.750 C 295.100 145.088,295.568 147.109,296.133 146.759 C 296.682 146.420,296.678 142.672,296.129 142.672 C 295.896 142.672,295.584 143.157,295.436 143.750 M298.276 144.802 C 298.276 145.999,298.925 146.909,299.423 146.410 C 299.777 146.056,299.119 143.534,298.673 143.534 C 298.454 143.534,298.276 144.105,298.276 144.802 M280.761 146.618 C 281.263 147.950,282.088 148.228,282.483 147.198 C 282.777 146.434,284.052 146.324,284.052 147.063 C 284.052 147.739,282.314 149.569,281.673 149.569 C 280.949 149.569,279.894 150.897,279.617 152.155 C 278.687 156.388,277.128 158.165,274.330 158.180 C 271.516 158.196,267.962 154.403,270.043 153.604 C 270.399 153.468,270.690 152.991,270.690 152.545 C 270.690 151.543,273.553 147.352,275.031 146.189 C 277.138 144.532,280.055 144.750,280.761 146.618 M223.173 146.659 C 223.412 146.956,223.737 147.805,223.895 148.545 C 224.053 149.286,225.028 150.774,226.060 151.852 C 227.093 152.930,228.060 154.197,228.209 154.668 C 228.359 155.138,228.754 155.629,229.087 155.756 C 229.421 155.884,229.827 156.727,229.991 157.628 C 230.435 160.080,231.383 161.654,232.689 162.109 C 234.347 162.687,236.267 167.366,235.260 168.373 C 234.707 168.926,234.323 168.952,232.917 168.531 C 231.589 168.133,229.857 168.171,224.666 168.712 C 211.232 170.112,212.069 170.583,212.069 161.613 C 212.069 155.956,211.967 155.026,211.209 153.782 C 210.735 153.006,210.347 151.825,210.346 151.157 C 210.344 149.614,209.636 148.276,208.821 148.276 C 208.474 148.276,208.190 147.894,208.190 147.427 C 208.190 146.640,208.550 146.569,213.254 146.443 C 216.040 146.367,219.314 146.264,220.529 146.213 C 221.882 146.157,222.908 146.330,223.173 146.659 M291.198 147.034 C 291.454 147.234,291.581 147.960,291.480 148.648 C 291.271 150.069,291.596 150.364,294.389 151.293 C 296.473 151.986,297.662 153.711,298.156 156.756 C 298.435 158.476,297.157 159.194,292.888 159.714 C 291.466 159.887,289.817 160.213,289.224 160.437 C 288.631 160.661,286.886 161.006,285.345 161.204 C 282.415 161.580,278.584 162.208,273.491 163.148 C 270.080 163.777,269.367 163.482,270.420 161.876 C 271.059 160.901,271.432 160.776,273.704 160.776 C 277.677 160.776,281.034 158.670,281.034 156.179 C 281.034 154.834,282.625 152.291,283.631 152.028 C 284.094 151.907,284.666 151.299,284.902 150.677 C 286.282 147.048,289.116 145.408,291.198 147.034 M198.017 150.170 C 205.669 150.222,206.191 150.277,206.637 151.083 C 206.898 151.554,207.691 152.812,208.398 153.879 C 209.721 155.875,210.332 163.321,209.366 165.683 C 208.928 166.755,178.214 166.575,176.911 165.493 C 176.056 164.784,176.387 151.155,177.285 150.064 C 177.670 149.596,178.961 149.544,183.818 149.798 C 187.147 149.973,193.536 150.140,198.017 150.170 M263.223 153.823 C 266.424 154.086,266.547 154.137,266.868 155.343 C 267.051 156.029,267.728 157.141,268.372 157.814 C 269.536 159.029,269.538 159.043,268.716 159.997 C 268.260 160.524,267.742 161.158,267.565 161.405 C 266.019 163.549,265.556 163.865,263.147 164.425 C 261.724 164.755,258.815 165.145,256.681 165.293 C 254.547 165.440,250.423 165.872,247.516 166.252 C 241.514 167.038,241.594 167.060,242.213 164.762 C 242.978 161.920,244.379 160.776,247.095 160.776 C 248.458 160.776,249.747 160.517,250.241 160.143 C 250.701 159.795,251.497 159.504,252.009 159.496 C 252.673 159.487,253.196 158.954,253.830 157.644 C 254.897 155.442,258.548 152.464,259.374 153.123 C 259.669 153.359,261.402 153.674,263.223 153.823 M296.893 162.691 C 297.288 163.557,297.735 163.768,299.407 163.876 C 301.516 164.013,302.695 165.086,300.736 165.086 C 297.426 165.086,295.972 166.297,297.629 167.672 C 298.686 168.549,298.373 169.988,296.781 171.572 C 295.959 172.391,295.273 173.254,295.257 173.491 C 295.056 176.460,292.283 176.742,288.805 174.147 C 286.516 172.439,286.385 172.400,283.363 172.513 C 280.905 172.605,280.093 172.474,279.431 171.875 C 278.136 170.706,269.911 171.767,268.341 173.306 C 267.784 173.851,265.517 173.816,265.517 173.262 C 265.517 173.018,265.857 172.688,266.272 172.529 C 266.686 172.371,267.865 171.601,268.891 170.819 C 269.916 170.037,271.014 169.397,271.329 169.397 C 271.645 169.397,272.745 168.462,273.775 167.319 C 275.836 165.030,279.207 163.804,283.494 163.783 C 284.630 163.777,286.336 163.575,287.284 163.333 C 288.886 162.925,294.880 161.782,295.944 161.682 C 296.202 161.658,296.629 162.112,296.893 162.691 M125.029 162.950 C 125.874 163.171,128.299 163.536,130.417 163.760 C 139.317 164.703,139.948 165.119,139.014 169.436 C 138.442 172.083,138.078 174.780,137.013 184.267 C 136.747 186.638,136.198 190.420,135.792 192.672 L 135.054 196.767 131.859 196.744 C 128.139 196.716,125.820 195.948,121.121 193.185 C 119.343 192.140,117.500 191.109,117.026 190.894 C 116.552 190.680,115.582 190.120,114.871 189.650 C 114.159 189.180,113.044 188.582,112.392 188.321 C 111.740 188.060,111.182 187.720,111.152 187.566 C 110.735 185.443,110.912 181.458,111.442 181.018 C 111.787 180.732,112.069 180.241,112.069 179.926 C 112.069 179.612,112.561 178.824,113.163 178.174 C 114.353 176.890,114.324 175.595,113.048 173.100 C 112.000 171.049,113.689 166.810,115.555 166.810 C 115.976 166.810,116.454 166.391,116.617 165.878 C 116.780 165.365,117.193 164.275,117.536 163.455 L 118.159 161.964 120.825 162.255 C 122.292 162.415,124.183 162.728,125.029 162.950 M145.905 165.555 C 147.495 165.967,156.294 166.909,164.341 167.527 C 166.183 167.668,167.824 168.000,167.986 168.263 C 168.441 168.998,168.101 178.914,167.424 184.698 C 167.090 187.543,166.813 191.034,166.807 192.457 C 166.791 196.617,166.877 196.599,153.545 195.232 C 149.888 194.856,149.398 194.897,147.804 195.710 C 146.319 196.468,145.844 196.527,144.583 196.111 C 143.190 195.651,143.038 195.702,141.968 196.972 C 138.810 200.726,137.266 197.743,138.517 190.302 C 138.876 188.168,139.388 184.580,139.656 182.328 C 139.923 180.075,140.412 176.002,140.742 173.276 C 141.072 170.550,141.350 167.896,141.360 167.380 C 141.401 165.338,142.842 164.759,145.905 165.555 M268.843 167.241 C 268.940 167.865,265.154 171.121,264.332 171.121 C 264.110 171.121,263.151 172.043,262.201 173.169 L 260.473 175.218 252.327 175.967 C 234.155 177.637,233.999 177.620,235.780 174.130 C 236.252 173.205,236.638 172.156,236.638 171.800 C 236.638 170.871,237.903 170.319,240.795 169.987 C 242.183 169.828,244.077 169.434,245.003 169.111 C 245.929 168.789,249.388 168.332,252.689 168.096 C 255.990 167.860,259.499 167.477,260.488 167.245 C 264.624 166.274,268.692 166.272,268.843 167.241 M240.866 167.274 C 240.781 167.529,240.527 167.737,240.302 167.737 C 240.077 167.737,239.823 167.529,239.738 167.274 C 239.653 167.019,239.907 166.810,240.302 166.810 C 240.697 166.810,240.951 167.019,240.866 167.274 M200.302 168.740 C 210.672 168.752,209.989 168.059,210.715 179.310 C 211.146 185.986,211.617 185.580,203.233 185.770 C 199.862 185.847,195.488 185.296,194.845 184.714 C 194.423 184.332,193.320 184.052,192.241 184.052 C 191.210 184.052,190.059 183.771,189.678 183.426 C 189.297 183.081,188.215 182.545,187.273 182.234 L 185.560 181.668 185.560 176.933 C 185.560 170.841,185.818 171.121,180.207 171.121 C 173.967 171.121,171.626 170.771,171.083 169.758 C 170.161 168.035,170.763 167.955,181.639 168.352 C 187.352 168.560,195.750 168.735,200.302 168.740 M230.353 170.951 C 230.728 171.095,231.034 171.670,231.034 172.229 C 231.034 172.820,231.413 173.448,231.938 173.729 C 233.160 174.383,232.823 176.022,230.614 180.183 C 228.147 184.827,227.949 185.357,227.913 187.427 C 227.863 190.238,226.881 190.703,220.962 190.719 C 216.452 190.732,216.173 190.681,215.712 189.766 C 215.444 189.234,214.854 188.390,214.401 187.890 C 213.711 187.128,213.526 185.995,213.257 180.883 C 213.080 177.529,212.886 174.213,212.826 173.514 C 212.686 171.898,213.443 171.707,221.983 171.193 C 225.420 170.987,228.556 170.789,228.952 170.754 C 229.347 170.718,229.978 170.807,230.353 170.951 M182.922 174.026 C 183.130 174.153,183.204 176.116,183.085 178.387 L 182.869 182.516 184.157 183.719 C 184.866 184.381,185.943 185.048,186.552 185.200 C 187.160 185.353,188.156 185.738,188.764 186.055 C 189.373 186.373,190.301 186.634,190.826 186.635 C 191.351 186.637,192.418 186.906,193.197 187.235 C 195.865 188.360,198.652 188.835,199.494 188.309 C 200.091 187.936,200.577 187.984,201.608 188.517 C 202.806 189.137,203.107 189.143,204.477 188.570 C 206.595 187.685,208.066 187.764,210.444 188.887 C 212.969 190.080,213.029 190.215,213.342 195.343 C 213.542 198.619,213.790 199.784,214.488 200.731 C 217.422 204.711,215.180 213.018,211.365 212.302 C 210.098 212.065,209.909 212.196,208.704 214.156 C 207.179 216.634,205.549 217.885,203.415 218.217 C 199.548 218.817,195.143 225.426,195.304 230.388 C 195.413 233.753,194.938 234.505,193.356 233.469 C 192.760 233.078,191.717 232.759,191.039 232.759 C 189.082 232.759,186.638 229.169,186.638 226.295 C 186.638 225.601,186.273 224.687,185.826 224.262 C 185.380 223.838,183.726 221.312,182.150 218.648 C 178.303 212.143,175.765 209.914,172.207 209.914 C 170.523 209.914,167.547 211.554,166.843 212.871 C 166.080 214.296,164.811 214.250,162.830 212.724 C 161.045 211.350,160.681 210.800,158.551 206.255 C 157.533 204.085,157.026 203.370,154.338 200.321 C 151.985 197.652,152.437 197.574,164.683 198.546 C 169.247 198.908,169.393 198.722,169.410 192.534 C 169.418 189.884,169.703 185.679,170.043 183.190 C 170.384 180.700,170.668 177.758,170.676 176.652 C 170.701 173.026,170.495 173.131,176.898 173.483 C 180.003 173.654,182.714 173.898,182.922 174.026 M279.058 174.541 C 280.091 175.222,280.819 175.328,283.153 175.140 C 287.715 174.772,290.955 177.651,289.073 180.400 C 288.753 180.867,288.362 181.778,288.206 182.423 C 287.771 184.215,284.841 186.963,282.999 187.308 C 281.497 187.590,281.286 187.469,278.324 184.642 C 276.618 183.014,274.998 181.487,274.726 181.250 C 271.113 178.109,269.403 176.104,269.916 175.612 C 271.755 173.853,277.069 173.230,279.058 174.541 M267.431 178.125 C 269.860 180.514,272.993 183.321,275.487 185.345 C 278.484 187.776,280.773 191.452,280.444 193.306 C 279.794 196.981,279.535 197.708,278.546 198.632 C 276.729 200.327,266.267 201.955,264.221 200.860 C 262.882 200.144,261.943 196.716,262.450 194.397 C 262.790 192.839,262.343 190.786,261.418 189.655 C 261.127 189.300,260.786 188.524,260.660 187.931 C 260.535 187.338,260.240 186.272,260.005 185.560 C 257.460 177.852,257.451 177.948,260.776 177.234 C 264.562 176.419,265.875 176.595,267.431 178.125 M255.975 180.426 C 256.482 181.751,256.903 183.351,256.912 183.982 C 256.920 184.613,257.204 185.614,257.543 186.207 C 257.882 186.800,258.166 187.675,258.174 188.153 C 258.183 188.631,258.559 189.711,259.012 190.555 C 259.922 192.254,260.418 198.843,259.684 199.492 C 259.311 199.821,256.521 200.307,250.289 201.127 C 249.136 201.279,248.106 201.665,247.980 201.994 C 247.855 202.320,247.216 202.586,246.561 202.586 L 245.370 202.586 245.067 198.312 C 244.758 193.963,244.824 181.420,245.162 180.086 C 245.335 179.404,245.875 179.227,250.647 178.287 C 254.251 177.577,254.999 177.878,255.975 180.426 M242.716 191.379 C 242.858 197.899,243.052 203.615,243.147 204.082 C 243.281 204.744,242.957 205.051,241.672 205.481 C 239.529 206.198,238.362 205.631,238.362 203.872 C 238.362 202.246,237.310 201.951,232.963 202.358 C 228.983 202.731,228.661 202.299,230.381 198.899 C 231.193 197.294,231.487 196.186,231.319 195.370 C 230.073 189.339,230.219 186.935,232.074 183.016 C 233.643 179.698,234.446 179.362,240.517 179.486 L 242.457 179.526 242.716 191.379 M227.414 193.002 C 229.069 194.107,229.104 196.559,227.510 199.618 C 227.053 200.494,226.641 202.054,226.594 203.084 L 226.509 204.957 230.599 205.082 C 235.140 205.221,235.992 205.590,234.313 206.690 C 232.965 207.574,232.901 208.334,234.052 209.796 C 235.173 211.222,235.139 211.707,233.831 212.936 L 232.749 213.952 230.908 212.654 C 228.089 210.667,226.588 210.266,224.791 211.016 C 223.525 211.545,222.901 211.557,220.805 211.093 L 218.319 210.543 218.103 206.026 C 217.947 202.751,217.685 201.211,217.151 200.425 C 215.890 198.572,215.291 194.869,216.118 194.042 C 216.997 193.163,226.363 192.301,227.414 193.002 M100.773 198.978 C 102.523 199.487,104.176 199.618,106.777 199.456 C 111.091 199.187,111.909 199.646,112.798 202.841 C 113.122 204.005,113.661 205.927,113.995 207.112 C 114.330 208.297,114.838 210.140,115.124 211.207 C 115.411 212.274,115.907 213.758,116.228 214.505 C 116.548 215.252,116.810 216.280,116.810 216.789 C 116.810 217.298,117.078 218.239,117.406 218.879 C 117.733 219.519,118.136 220.850,118.299 221.837 C 118.653 223.965,119.813 225.199,121.083 224.797 C 121.708 224.598,122.293 224.840,123.073 225.620 C 124.383 226.930,124.855 226.999,125.194 225.931 C 125.975 223.468,129.114 224.158,132.707 227.583 C 133.928 228.747,135.137 229.471,136.128 229.632 C 139.051 230.106,140.956 233.858,138.254 233.819 C 137.551 233.809,137.069 234.034,137.069 234.372 C 137.069 235.331,135.880 235.462,134.735 234.628 C 133.549 233.764,133.330 232.791,134.138 231.983 C 134.896 231.224,133.890 231.304,132.297 232.128 C 130.838 232.882,130.327 232.685,128.705 230.742 C 128.068 229.979,126.660 229.049,125.527 228.642 C 124.407 228.241,122.828 227.620,122.016 227.263 C 120.961 226.798,119.772 226.685,117.839 226.866 C 116.352 227.005,114.010 226.935,112.633 226.710 C 110.795 226.411,110.084 226.436,109.960 226.805 C 109.223 228.998,104.741 232.075,104.741 230.388 C 104.741 229.468,103.131 229.586,102.619 230.543 C 101.912 231.864,102.536 234.414,103.604 234.567 C 104.970 234.763,104.961 236.056,103.587 237.265 C 101.413 239.177,100.223 238.273,101.536 235.707 L 102.273 234.267 101.280 235.129 C 100.733 235.603,98.888 237.388,97.178 239.095 C 95.312 240.958,93.576 242.304,92.833 242.462 C 92.152 242.607,90.958 243.004,90.179 243.345 C 88.527 244.069,87.931 244.125,87.931 243.554 C 87.931 242.845,90.088 240.948,90.895 240.948 C 91.904 240.948,96.058 236.821,96.394 235.485 C 96.710 234.223,96.480 233.953,94.938 233.778 C 94.285 233.704,93.168 233.557,92.457 233.452 C 91.746 233.346,91.039 233.244,90.887 233.225 C 90.735 233.205,90.477 232.658,90.314 232.009 C 89.972 230.644,89.403 230.188,88.030 230.179 C 87.366 230.175,86.899 229.790,86.580 228.987 C 86.321 228.335,85.841 227.287,85.512 226.658 C 84.312 224.361,85.781 220.746,87.931 220.706 C 90.919 220.649,92.469 217.241,89.507 217.241 C 87.096 217.241,85.383 216.752,85.174 216.005 C 84.379 213.154,84.464 212.741,86.055 211.731 C 87.486 210.821,87.683 210.796,88.615 211.407 C 89.749 212.150,90.948 212.280,90.948 211.659 C 90.948 211.434,90.699 211.095,90.394 210.905 C 87.358 209.016,85.662 204.237,87.931 203.966 C 88.552 203.892,89.412 203.265,89.961 202.488 C 92.572 198.790,96.141 197.631,100.773 198.978 M281.552 202.047 C 281.910 202.462,282.662 203.772,283.222 204.957 C 283.783 206.142,284.974 208.058,285.869 209.213 C 286.764 210.369,287.691 212.017,287.929 212.877 C 288.168 213.736,288.834 215.216,289.410 216.164 C 291.313 219.300,292.322 221.731,292.959 224.721 L 293.589 227.675 291.941 230.540 C 290.095 233.749,288.676 234.501,287.970 232.645 C 287.753 232.075,286.599 230.791,285.404 229.791 C 284.210 228.791,282.895 227.208,282.483 226.274 C 282.071 225.340,281.372 224.461,280.931 224.321 C 279.716 223.935,277.586 221.685,277.586 220.787 C 277.586 220.350,277.301 219.616,276.953 219.156 C 276.536 218.604,276.316 217.257,276.307 215.204 C 276.294 212.282,276.219 212.042,275.108 211.335 C 274.456 210.921,273.050 209.757,271.983 208.750 C 268.945 205.880,268.068 205.669,265.876 207.281 C 263.877 208.751,261.668 209.049,260.772 207.969 C 259.627 206.590,256.363 205.518,254.012 205.748 C 249.720 206.168,249.668 203.826,253.952 203.091 C 259.698 202.106,260.785 202.062,261.867 202.771 C 263.053 203.548,267.547 203.667,271.903 203.037 C 273.891 202.750,275.052 202.793,276.213 203.197 C 278.139 203.868,278.813 203.679,279.328 202.325 C 279.791 201.106,280.647 200.999,281.552 202.047 M133.621 214.224 C 134.272 215.440,133.460 216.810,132.088 216.810 C 130.713 216.810,129.757 215.028,130.593 214.021 C 131.369 213.086,133.072 213.200,133.621 214.224 M144.901 218.817 C 145.814 219.643,145.927 220.829,145.151 221.439 C 144.448 221.992,141.810 220.917,141.810 220.077 C 141.810 218.105,143.399 217.457,144.901 218.817 M80.603 218.966 C 80.603 219.203,80.227 219.397,79.767 219.397 C 79.307 219.397,78.810 219.203,78.664 218.966 C 78.513 218.721,78.875 218.534,79.500 218.534 C 80.107 218.534,80.603 218.728,80.603 218.966 M151.975 222.414 C 152.696 222.414,152.769 223.421,152.135 224.607 C 151.705 225.409,151.632 225.388,150.596 224.156 C 149.490 222.842,149.563 221.723,150.725 222.169 C 151.076 222.304,151.639 222.414,151.975 222.414 M157.575 224.037 C 159.133 225.104,158.449 227.155,156.534 227.155 C 155.376 227.155,153.448 225.363,153.448 224.286 C 153.448 223.657,156.730 223.459,157.575 224.037 M85.129 228.879 C 85.129 229.657,84.066 229.893,83.190 229.310 C 82.615 228.927,82.615 228.831,83.190 228.449 C 84.066 227.865,85.129 228.102,85.129 228.879 M162.742 230.568 C 168.131 233.193,169.329 235.961,165.913 237.892 C 164.827 238.506,163.409 239.378,162.762 239.829 C 161.673 240.590,161.534 240.598,160.880 239.944 C 159.585 238.649,158.542 233.124,159.483 232.543 C 159.720 232.397,159.914 231.706,159.914 231.009 C 159.914 229.510,160.410 229.432,162.742 230.568 M87.016 243.924 C 87.763 244.397,87.270 245.259,86.253 245.259 C 85.182 245.259,84.836 244.794,85.401 244.113 C 85.960 243.440,86.207 243.411,87.016 243.924 M189.825 325.216 C 189.826 328.534,189.894 329.835,189.976 328.106 C 190.058 326.377,190.057 323.662,189.974 322.072 C 189.892 320.482,189.825 321.897,189.825 325.216 M176.015 334.267 C 176.014 336.401,176.087 337.328,176.177 336.328 C 176.267 335.327,176.269 333.582,176.179 332.448 C 176.090 331.315,176.016 332.134,176.015 334.267 M103.979 334.914 C 103.979 335.744,104.068 336.083,104.176 335.668 C 104.285 335.253,104.285 334.574,104.176 334.159 C 104.068 333.745,103.979 334.084,103.979 334.914 M189.832 343.319 C 189.831 347.349,189.896 349.056,189.976 347.112 C 190.055 345.168,190.056 341.870,189.976 339.784 C 189.897 337.698,189.832 339.289,189.832 343.319 M207.005 353.233 C 207.010 354.181,207.098 354.518,207.201 353.982 C 207.305 353.446,207.301 352.670,207.193 352.258 C 207.085 351.846,207.000 352.284,207.005 353.233 " stroke="none" fill="#ffeb3b" fill-rule="evenodd"></path></g></svg>