<svg id="svg" version="1.1" width="928" height="918" xmlns="http://www.w3.org/2000/svg" xmlns:xlink="http://www.w3.org/1999/xlink" style="display: block;"><g id="svgg"><path id="path0" d="M23.141 0.856 C 12.580 3.296,3.186 12.543,0.802 22.845 C -0.146 26.943,-0.279 366.287,0.666 370.905 C 2.832 381.490,10.673 390.270,21.121 393.809 C 23.418 394.587,28.885 394.612,197.414 394.612 L 371.336 394.612 374.162 393.511 C 383.538 389.856,389.425 383.969,393.080 374.593 L 394.181 371.767 394.181 197.845 C 394.181 29.426,394.156 23.841,393.378 21.336 C 391.944 16.715,387.747 10.052,384.921 7.910 C 384.561 7.638,383.685 6.898,382.974 6.266 C 381.221 4.707,374.466 1.476,371.552 0.802 C 367.188 -0.208,27.516 -0.156,23.141 0.856 M361.272 21.013 C 361.568 21.309,362.256 21.552,362.802 21.552 C 363.347 21.552,363.793 21.726,363.793 21.939 C 363.793 22.152,364.594 22.744,365.572 23.254 C 368.886 24.981,373.707 31.468,373.707 34.199 C 373.707 34.564,373.901 34.983,374.138 35.129 C 374.424 35.306,374.569 76.010,374.569 155.844 L 374.569 276.293 341.810 276.293 L 309.052 276.293 309.052 224.569 L 309.052 172.845 278.017 172.845 L 246.983 172.845 246.983 215.302 L 246.983 257.759 248.148 257.759 C 249.090 257.759,251.092 259.533,258.600 267.023 L 267.888 276.288 263.381 276.290 L 258.873 276.293 252.787 270.259 L 246.700 264.224 191.164 264.224 L 135.627 264.224 129.541 270.259 L 123.454 276.293 118.947 276.290 L 114.440 276.288 123.727 267.023 C 131.235 259.533,133.238 257.759,134.180 257.759 L 135.345 257.759 135.345 215.302 L 135.345 172.845 104.310 172.845 L 73.276 172.845 73.276 224.569 L 73.276 276.293 46.763 276.293 L 20.250 276.293 20.362 155.065 L 20.474 33.836 21.767 31.470 C 22.478 30.169,23.448 28.713,23.922 28.234 C 24.397 27.756,24.991 26.991,25.244 26.534 C 25.497 26.078,26.067 25.497,26.510 25.244 C 26.953 24.991,27.716 24.397,28.205 23.922 C 29.425 22.740,31.644 21.552,32.631 21.552 C 33.081 21.552,33.633 21.377,33.858 21.163 C 34.083 20.948,34.655 20.680,35.129 20.565 C 37.320 20.035,360.738 20.479,361.272 21.013 M188.868 42.808 C 187.939 43.797,187.931 43.947,187.931 60.696 L 187.931 77.586 186.920 77.586 C 184.944 77.586,184.483 78.746,184.483 83.714 L 184.483 88.266 182.866 88.559 C 164.414 91.907,150.726 110.528,151.802 130.819 L 151.940 133.405 191.164 133.405 L 230.388 133.405 230.525 130.819 C 231.601 110.528,217.914 91.907,199.461 88.559 L 197.845 88.266 197.845 83.640 C 197.845 78.643,197.406 77.586,195.332 77.586 C 194.441 77.586,194.397 77.401,194.397 73.707 C 194.397 71.573,194.484 69.828,194.591 69.828 C 194.698 69.828,195.903 70.119,197.268 70.474 C 200.650 71.355,204.417 71.286,211.252 70.219 C 217.719 69.209,224.546 69.278,228.102 70.390 C 230.784 71.228,230.603 72.018,230.603 59.428 L 230.603 48.311 227.694 47.406 C 223.703 46.165,217.396 46.170,210.558 47.419 C 201.487 49.075,194.397 48.045,194.397 45.071 C 194.397 42.196,190.819 40.731,188.868 42.808 M122.414 153.233 L 122.414 166.379 128.879 166.379 L 135.345 166.379 135.345 164.034 C 135.345 161.420,135.516 161.219,138.362 160.503 C 139.429 160.235,146.606 158.326,154.310 156.262 C 172.272 151.450,174.087 150.966,183.417 148.509 L 191.188 146.462 198.935 148.510 C 209.508 151.306,211.922 151.950,228.017 156.262 C 235.722 158.326,242.899 160.235,243.966 160.503 C 246.811 161.219,246.983 161.420,246.983 164.034 L 246.983 166.379 253.448 166.379 L 259.914 166.379 259.914 153.233 L 259.914 140.086 191.164 140.086 L 122.414 140.086 122.414 153.233 M182.328 155.434 C 177.705 156.706,172.371 158.141,170.474 158.621 C 168.578 159.102,161.401 160.996,154.526 162.830 L 142.026 166.164 141.916 211.961 L 141.806 257.759 151.722 257.759 L 161.638 257.759 161.638 220.259 L 161.638 182.759 171.552 182.759 L 181.466 182.759 181.466 220.259 L 181.466 257.759 191.164 257.759 L 200.862 257.759 200.862 220.259 L 200.862 182.759 210.776 182.759 L 220.690 182.759 220.690 220.259 L 220.690 257.759 230.605 257.759 L 240.521 257.759 240.411 211.961 L 240.302 166.164 227.802 162.829 C 220.927 160.995,213.847 159.127,212.069 158.677 C 210.291 158.228,204.789 156.770,199.843 155.439 C 194.897 154.107,190.824 153.040,190.791 153.068 C 190.759 153.097,186.950 154.161,182.328 155.434 M99.569 198.934 L 99.569 208.643 93.085 208.524 L 86.601 208.405 86.611 199.030 C 86.616 193.874,86.624 189.558,86.629 189.440 C 86.634 189.321,89.547 189.224,93.103 189.224 L 99.569 189.224 99.569 198.934 M122.414 198.922 L 122.414 208.621 115.948 208.621 L 109.483 208.621 109.483 198.922 L 109.483 189.224 115.948 189.224 L 122.414 189.224 122.414 198.922 M272.845 198.922 L 272.845 208.621 266.379 208.621 L 259.914 208.621 259.914 198.922 L 259.914 189.224 266.379 189.224 L 272.845 189.224 272.845 198.922 M295.726 198.922 L 295.726 208.405 289.243 208.524 L 282.759 208.643 282.759 198.922 L 282.759 189.202 289.243 189.321 L 295.726 189.440 295.726 198.922 M99.569 231.692 L 99.569 241.402 93.102 241.283 C 89.546 241.217,86.636 241.018,86.637 240.841 C 86.637 240.663,86.638 236.347,86.638 231.250 L 86.638 221.983 93.103 221.983 L 99.569 221.983 99.569 231.692 M122.414 231.681 L 122.414 241.379 115.948 241.379 L 109.483 241.379 109.483 231.681 L 109.483 221.983 115.948 221.983 L 122.414 221.983 122.414 231.681 M272.845 231.681 L 272.845 241.379 266.379 241.379 L 259.914 241.379 259.914 231.681 L 259.914 221.983 266.379 221.983 L 272.845 221.983 272.845 231.681 M295.690 231.250 C 295.690 236.347,295.690 240.663,295.691 240.841 C 295.691 241.018,292.782 241.217,289.225 241.283 L 282.759 241.402 282.759 231.692 L 282.759 221.983 289.224 221.983 L 295.690 221.983 295.690 231.250 M81.484 311.315 C 81.493 311.611,81.486 317.503,81.466 324.409 C 81.426 338.816,81.817 341.764,84.137 344.579 C 87.876 349.115,96.680 348.855,99.605 344.122 C 101.315 341.356,101.450 340.149,101.697 325.431 L 101.940 310.991 104.310 310.991 L 106.681 310.991 106.681 326.509 L 106.681 342.026 105.555 344.397 C 100.064 355.960,81.336 355.318,77.155 343.423 C 76.284 340.945,75.768 311.876,76.580 311.063 C 77.124 310.520,81.464 310.742,81.484 311.315 M125.929 311.961 C 126.528 312.613,128.144 315.183,129.521 317.672 C 130.897 320.162,132.453 322.974,132.978 323.922 C 133.878 325.549,134.834 327.278,138.216 333.405 C 139.001 334.828,140.373 337.485,141.266 339.310 C 142.158 341.135,143.033 342.638,143.211 342.650 C 143.389 342.662,143.534 335.713,143.534 327.208 C 143.534 309.903,143.398 310.625,146.628 310.857 L 148.491 310.991 148.604 330.770 C 148.729 352.967,148.917 351.724,145.445 351.724 C 142.725 351.724,141.614 350.915,139.819 347.629 C 139.171 346.444,138.045 344.397,137.317 343.081 C 136.588 341.765,133.179 335.562,129.741 329.296 L 123.491 317.905 123.276 334.707 L 123.060 351.509 120.953 351.642 C 119.794 351.716,118.671 351.602,118.457 351.388 C 117.870 350.801,118.004 312.062,118.596 311.349 C 119.569 310.176,124.680 310.603,125.929 311.961 M165.000 311.293 C 165.548 311.841,165.791 349.647,165.256 351.042 C 164.935 351.878,160.800 352.007,160.000 351.207 C 159.256 350.462,159.256 312.038,160.000 311.293 C 160.284 311.009,161.409 310.776,162.500 310.776 C 163.591 310.776,164.716 311.009,165.000 311.293 M201.521 311.675 C 201.678 312.170,201.682 313.237,201.530 314.046 L 201.254 315.517 195.244 315.517 L 189.234 315.517 189.121 333.513 L 189.009 351.509 186.684 351.641 C 183.432 351.826,183.602 352.800,183.499 333.369 L 183.405 315.733 177.371 315.517 L 171.336 315.302 171.200 313.640 C 170.949 310.591,169.972 310.776,186.380 310.776 C 201.063 310.776,201.238 310.786,201.521 311.675 M224.212 311.489 C 224.645 311.882,225.000 312.483,225.000 312.825 C 225.000 313.167,225.270 314.059,225.600 314.806 C 225.931 315.553,227.297 319.267,228.637 323.060 C 229.976 326.853,231.335 330.636,231.655 331.466 C 231.976 332.295,232.828 334.623,233.549 336.638 C 234.269 338.653,235.647 342.444,236.611 345.061 C 239.013 351.591,238.998 351.724,235.829 351.724 C 232.781 351.724,232.855 351.807,231.008 346.336 C 228.998 340.387,230.039 340.912,220.522 341.047 L 212.284 341.164 211.074 344.612 C 210.409 346.509,209.690 348.613,209.476 349.287 C 208.823 351.352,208.256 351.724,205.766 351.724 C 202.605 351.724,202.629 351.449,206.681 340.948 C 207.243 339.491,207.837 337.837,210.779 329.526 C 211.535 327.392,212.415 324.968,212.735 324.138 C 213.055 323.308,214.118 320.399,215.096 317.672 C 217.580 310.747,217.557 310.776,220.773 310.776 C 222.634 310.776,223.658 310.988,224.212 311.489 M262.621 311.491 C 271.677 314.032,273.045 326.281,264.756 330.602 C 262.580 331.735,262.594 331.669,264.233 333.047 C 266.284 334.773,269.244 340.815,272.208 349.324 C 272.985 351.554,272.815 351.724,269.817 351.724 C 266.851 351.724,267.187 352.131,264.648 345.455 C 260.710 335.099,259.385 333.621,254.039 333.621 L 250.880 333.621 250.763 342.565 L 250.647 351.509 248.060 351.509 L 245.474 351.509 245.362 331.730 C 245.281 317.486,245.386 311.788,245.738 311.364 C 246.497 310.450,259.253 310.546,262.621 311.491 M284.854 317.780 C 288.832 325.911,290.086 328.664,290.086 329.261 C 290.086 330.242,290.981 330.143,291.370 329.119 C 292.035 327.369,293.409 324.409,296.831 317.349 L 300.018 310.776 302.559 310.776 C 306.104 310.776,306.175 310.471,299.614 323.491 L 293.750 335.129 293.534 343.319 L 293.319 351.509 290.733 351.509 L 288.147 351.509 287.931 343.532 L 287.716 335.556 281.753 323.784 C 275.127 310.701,275.144 310.776,278.847 310.776 L 281.428 310.776 284.854 317.780 M250.862 322.198 L 250.862 328.879 254.755 328.879 C 261.455 328.879,264.225 326.822,264.223 321.847 C 264.222 317.231,261.802 315.517,255.287 315.517 L 250.862 315.517 250.862 322.198 M217.115 326.654 C 215.288 332.065,213.793 336.622,213.793 336.781 C 213.793 336.939,216.897 337.069,220.690 337.069 C 224.483 337.069,227.582 336.923,227.577 336.746 C 227.572 336.568,226.885 334.483,226.051 332.112 C 225.217 329.741,223.748 325.474,222.787 322.629 C 221.826 319.784,220.904 317.313,220.738 317.136 C 220.572 316.960,218.942 321.243,217.115 326.654 " stroke="none" fill="#222222" fill-rule="evenodd"></path><path id="path1" d="M0.032 12.823 L 0.063 25.647 0.815 22.629 C 2.501 15.861,8.868 7.153,14.140 4.405 C 15.100 3.904,16.239 3.300,16.671 3.062 C 18.448 2.081,20.618 1.276,23.060 0.691 C 25.501 0.107,24.926 0.070,12.823 0.036 L 0.000 0.000 0.032 12.823 M372.169 0.857 C 383.749 3.977,392.548 13.709,394.363 25.400 C 395.183 30.691,394.997 365.077,394.171 370.259 C 392.372 381.534,383.865 390.835,372.198 394.279 C 369.037 395.213,34.767 395.741,26.648 394.825 C 14.106 393.410,4.150 384.808,0.836 372.521 L 0.052 369.612 0.026 382.651 L 0.000 395.690 200.000 395.690 L 400.000 395.690 400.000 197.845 L 400.000 0.000 384.591 0.026 L 369.181 0.052 372.169 0.857 M76.580 311.063 C 75.768 311.876,76.284 340.945,77.155 343.423 C 81.380 355.443,99.793 355.818,105.329 343.998 L 106.657 341.164 106.814 326.485 C 106.992 309.965,107.118 310.619,103.803 310.857 L 101.940 310.991 101.697 325.431 C 101.454 339.925,101.311 341.265,99.723 343.954 C 96.889 348.751,87.993 349.329,84.009 344.975 C 81.599 342.342,81.466 341.341,81.466 325.940 C 81.466 315.525,81.330 311.674,80.948 311.293 C 80.403 310.748,77.071 310.573,76.580 311.063 M118.596 311.349 C 118.002 312.063,117.870 350.801,118.459 351.390 C 118.673 351.604,119.699 351.718,120.739 351.644 L 122.629 351.509 122.845 334.323 L 123.060 317.138 129.526 328.910 C 133.082 335.385,136.588 341.761,137.317 343.078 C 138.045 344.396,139.171 346.444,139.819 347.629 C 141.565 350.826,142.748 351.724,145.216 351.724 C 148.893 351.724,148.707 352.833,148.707 330.979 C 148.707 310.035,148.802 310.776,146.121 310.776 C 143.464 310.776,143.534 310.313,143.534 327.759 C 143.534 336.812,143.373 343.530,143.160 343.297 C 142.954 343.072,141.613 340.657,140.179 337.931 C 134.725 327.558,126.392 312.764,125.455 311.791 C 124.309 310.599,119.476 310.288,118.596 311.349 M160.000 311.293 C 159.256 312.038,159.256 350.462,160.000 351.207 C 160.284 351.491,161.312 351.724,162.284 351.724 C 165.216 351.724,165.086 352.672,165.086 331.250 C 165.086 309.828,165.216 310.776,162.284 310.776 C 161.313 310.776,160.284 311.009,160.000 311.293 M171.414 311.058 C 171.253 311.219,171.121 312.187,171.121 313.210 C 171.121 315.481,171.122 315.482,178.233 315.627 L 183.405 315.733 183.499 333.316 C 183.604 353.104,183.403 351.724,186.186 351.724 C 188.959 351.724,188.793 352.917,188.793 332.939 L 188.793 315.517 194.559 315.517 C 201.063 315.517,201.437 315.355,201.213 312.638 L 201.078 310.991 186.392 310.878 C 178.315 310.816,171.575 310.897,171.414 311.058 M217.499 311.746 C 217.155 312.279,216.074 314.946,215.096 317.672 C 214.118 320.399,213.055 323.308,212.735 324.138 C 212.415 324.968,211.535 327.392,210.779 329.526 C 207.837 337.837,207.243 339.491,206.681 340.948 C 202.630 351.446,202.596 351.818,205.708 351.639 C 208.322 351.488,208.280 351.545,210.501 345.107 L 211.861 341.164 220.310 341.047 C 230.068 340.912,228.997 340.383,231.008 346.336 C 232.836 351.750,232.814 351.724,235.577 351.724 C 238.309 351.724,238.493 351.399,237.398 348.498 C 236.949 347.309,236.325 345.560,236.011 344.612 C 235.698 343.664,234.825 341.239,234.071 339.224 C 233.317 337.209,232.538 335.075,232.339 334.483 C 232.140 333.890,231.162 331.175,230.166 328.448 C 229.169 325.722,228.096 322.716,227.780 321.767 C 226.334 317.432,224.471 312.630,223.892 311.746 C 222.951 310.311,218.423 310.310,217.499 311.746 M245.738 311.364 C 245.386 311.788,245.281 317.486,245.362 331.730 L 245.474 351.509 247.845 351.509 L 250.216 351.509 250.431 342.492 L 250.647 333.475 253.879 333.580 C 259.266 333.755,260.547 335.014,263.786 343.319 C 264.803 345.927,265.985 348.885,266.414 349.892 L 267.193 351.724 269.588 351.724 C 272.735 351.724,272.637 350.154,268.983 342.026 C 266.125 335.668,265.486 334.545,263.975 333.218 C 263.054 332.409,262.495 331.683,262.733 331.603 C 272.395 328.383,272.065 314.934,262.244 311.649 C 259.018 310.570,246.575 310.355,245.738 311.364 M276.029 311.394 C 275.898 311.734,278.474 317.310,281.753 323.784 L 287.716 335.556 287.931 343.532 L 288.147 351.509 290.517 351.509 L 292.888 351.509 293.103 343.319 L 293.319 335.129 299.183 323.491 C 305.688 310.581,305.640 310.776,302.344 310.776 L 300.018 310.776 296.831 317.349 C 293.423 324.380,292.035 327.370,291.380 329.093 C 290.799 330.620,290.334 330.441,289.422 328.341 C 287.238 323.312,281.341 311.395,280.896 311.112 C 279.958 310.516,276.284 310.729,276.029 311.394 M261.103 316.261 C 264.621 318.059,265.381 323.843,262.479 326.745 C 260.876 328.348,258.899 328.879,254.540 328.879 L 250.431 328.879 250.431 322.270 C 250.431 318.635,250.577 315.509,250.754 315.324 C 251.387 314.664,259.398 315.389,261.103 316.261 M222.787 322.629 C 223.748 325.474,225.217 329.741,226.051 332.112 C 226.885 334.483,227.572 336.568,227.577 336.746 C 227.582 336.923,224.386 337.069,220.474 337.069 C 216.563 337.069,213.363 336.923,213.365 336.746 C 213.369 336.278,219.709 317.781,220.061 317.213 C 220.552 316.417,220.965 317.236,222.787 322.629 " stroke="none" fill="#ffffff" fill-rule="evenodd"></path><path id="path2" d="M35.129 20.565 C 34.655 20.680,34.083 20.948,33.858 21.163 C 33.633 21.377,33.081 21.552,32.631 21.552 C 31.644 21.552,29.425 22.740,28.205 23.922 C 27.716 24.397,26.953 24.991,26.510 25.244 C 26.067 25.497,25.497 26.078,25.244 26.534 C 24.991 26.991,24.397 27.756,23.922 28.234 C 23.448 28.713,22.478 30.169,21.767 31.470 L 20.474 33.836 20.362 155.065 L 20.250 276.293 46.763 276.293 L 73.276 276.293 73.276 224.569 L 73.276 172.845 104.310 172.845 L 135.345 172.845 135.345 215.302 L 135.345 257.759 134.180 257.759 C 133.238 257.759,131.235 259.533,123.727 267.023 L 114.440 276.288 118.947 276.290 L 123.454 276.293 129.541 270.259 L 135.627 264.224 191.164 264.224 L 246.700 264.224 252.787 270.259 L 258.873 276.293 263.381 276.290 L 267.888 276.288 258.600 267.023 C 251.092 259.533,249.090 257.759,248.148 257.759 L 246.983 257.759 246.983 215.302 L 246.983 172.845 278.017 172.845 L 309.052 172.845 309.052 224.569 L 309.052 276.293 341.810 276.293 L 374.569 276.293 374.569 155.844 C 374.569 76.010,374.424 35.306,374.138 35.129 C 373.901 34.983,373.707 34.564,373.707 34.199 C 373.707 31.468,368.886 24.981,365.572 23.254 C 364.594 22.744,363.793 22.152,363.793 21.939 C 363.793 21.726,363.347 21.552,362.802 21.552 C 362.256 21.552,361.568 21.309,361.272 21.013 C 360.738 20.479,37.320 20.035,35.129 20.565 M394.610 197.198 C 394.610 290.841,394.659 329.213,394.720 282.470 C 394.780 235.728,394.780 159.112,394.720 112.212 C 394.659 65.312,394.610 103.556,394.610 197.198 M193.399 42.748 C 194.041 43.351,194.397 44.179,194.397 45.071 C 194.397 48.045,201.487 49.075,210.558 47.419 C 217.396 46.170,223.703 46.165,227.694 47.406 L 230.603 48.311 230.603 59.428 C 230.603 72.018,230.784 71.228,228.102 70.390 C 224.546 69.278,217.719 69.209,211.252 70.219 C 204.417 71.286,200.650 71.355,197.268 70.474 C 195.903 70.119,194.698 69.828,194.591 69.828 C 194.484 69.828,194.397 71.573,194.397 73.707 C 194.397 77.401,194.441 77.586,195.332 77.586 C 197.406 77.586,197.845 78.643,197.845 83.640 L 197.845 88.266 199.461 88.559 C 217.914 91.907,231.601 110.528,230.525 130.819 L 230.388 133.405 191.164 133.405 L 151.940 133.405 151.802 130.819 C 150.726 110.528,164.414 91.907,182.866 88.559 L 184.483 88.266 184.483 83.714 C 184.483 78.746,184.944 77.586,186.920 77.586 L 187.931 77.586 187.931 60.696 C 187.931 43.947,187.939 43.797,188.868 42.808 C 190.069 41.529,192.074 41.503,193.399 42.748 M259.914 153.233 L 259.914 166.379 253.448 166.379 L 246.983 166.379 246.983 164.034 C 246.983 161.420,246.811 161.219,243.966 160.503 C 242.899 160.235,235.722 158.326,228.017 156.262 C 211.922 151.950,209.508 151.306,198.935 148.510 L 191.188 146.462 183.417 148.509 C 174.087 150.966,172.272 151.450,154.310 156.262 C 146.606 158.326,139.429 160.235,138.362 160.503 C 135.516 161.219,135.345 161.420,135.345 164.034 L 135.345 166.379 128.879 166.379 L 122.414 166.379 122.414 153.233 L 122.414 140.086 191.164 140.086 L 259.914 140.086 259.914 153.233 M199.843 155.439 C 204.789 156.770,210.291 158.228,212.069 158.677 C 213.847 159.127,220.927 160.995,227.802 162.829 L 240.302 166.164 240.411 211.961 L 240.521 257.759 230.605 257.759 L 220.690 257.759 220.690 220.259 L 220.690 182.759 210.776 182.759 L 200.862 182.759 200.862 220.259 L 200.862 257.759 191.164 257.759 L 181.466 257.759 181.466 220.259 L 181.466 182.759 171.552 182.759 L 161.638 182.759 161.638 220.259 L 161.638 257.759 151.722 257.759 L 141.806 257.759 141.916 211.961 L 142.026 166.164 154.526 162.830 C 161.401 160.996,168.578 159.102,170.474 158.621 C 173.886 157.757,190.678 153.167,190.791 153.068 C 190.824 153.040,194.897 154.107,199.843 155.439 M86.629 189.440 C 86.624 189.558,86.616 193.874,86.611 199.030 L 86.601 208.405 93.085 208.524 L 99.569 208.643 99.569 198.934 L 99.569 189.224 93.103 189.224 C 89.547 189.224,86.634 189.321,86.629 189.440 M109.483 198.922 L 109.483 208.621 115.948 208.621 L 122.414 208.621 122.414 198.922 L 122.414 189.224 115.948 189.224 L 109.483 189.224 109.483 198.922 M259.914 198.922 L 259.914 208.621 266.379 208.621 L 272.845 208.621 272.845 198.922 L 272.845 189.224 266.379 189.224 L 259.914 189.224 259.914 198.922 M282.759 198.922 L 282.759 208.643 289.243 208.524 L 295.726 208.405 295.726 198.922 L 295.726 189.440 289.243 189.321 L 282.759 189.202 282.759 198.922 M86.638 231.250 C 86.638 236.347,86.637 240.663,86.637 240.841 C 86.636 241.018,89.546 241.217,93.102 241.283 L 99.569 241.402 99.569 231.692 L 99.569 221.983 93.103 221.983 L 86.638 221.983 86.638 231.250 M109.483 231.681 L 109.483 241.379 115.948 241.379 L 122.414 241.379 122.414 231.681 L 122.414 221.983 115.948 221.983 L 109.483 221.983 109.483 231.681 M259.914 231.681 L 259.914 241.379 266.379 241.379 L 272.845 241.379 272.845 231.681 L 272.845 221.983 266.379 221.983 L 259.914 221.983 259.914 231.681 M282.759 231.692 L 282.759 241.402 289.225 241.283 C 292.782 241.217,295.691 241.018,295.691 240.841 C 295.690 240.663,295.690 236.347,295.690 231.250 L 295.690 221.983 289.224 221.983 L 282.759 221.983 282.759 231.692 M164.547 311.206 C 165.311 312.063,165.332 350.444,164.569 351.207 C 164.223 351.553,164.208 351.724,164.523 351.724 C 165.874 351.724,166.108 312.190,164.763 311.173 C 164.121 310.687,164.089 310.692,164.547 311.206 M224.000 311.951 C 224.432 312.717,224.856 313.133,224.943 312.876 C 225.030 312.620,224.677 311.994,224.159 311.485 L 223.216 310.560 224.000 311.951 M304.861 311.207 C 304.964 311.563,302.445 317.063,299.266 323.430 C 296.086 329.798,293.551 335.074,293.632 335.155 C 294.077 335.600,305.493 311.732,305.102 311.172 C 304.742 310.655,304.705 310.661,304.861 311.207 M201.393 312.931 C 201.393 313.761,201.482 314.100,201.590 313.685 C 201.699 313.270,201.699 312.592,201.590 312.177 C 201.482 311.762,201.393 312.101,201.393 312.931 M282.632 313.997 C 283.268 315.294,283.861 316.283,283.949 316.195 C 284.143 316.001,281.969 311.638,281.678 311.638 C 281.566 311.638,281.995 312.699,282.632 313.997 M126.766 313.552 C 127.264 314.396,127.754 315.086,127.855 315.086 C 128.162 315.086,126.762 312.575,126.295 312.286 C 126.056 312.138,126.268 312.708,126.766 313.552 M267.297 314.415 C 267.683 314.903,268.305 315.884,268.680 316.595 C 269.063 317.321,269.370 317.589,269.379 317.205 C 269.389 316.830,268.766 315.849,267.996 315.025 C 267.225 314.201,266.911 313.927,267.297 314.415 M250.621 315.644 C 250.503 315.951,250.466 319.103,250.539 322.648 L 250.671 329.095 250.767 322.324 L 250.862 315.554 254.203 315.407 L 257.543 315.260 254.189 315.173 C 251.778 315.111,250.775 315.243,250.621 315.644 M188.896 332.831 C 188.839 342.472,188.668 350.716,188.514 351.150 C 188.308 351.733,188.366 351.820,188.735 351.482 C 189.101 351.146,189.203 346.281,189.116 333.163 L 188.999 315.302 188.896 332.831 M129.310 318.103 C 129.794 319.052,130.287 319.828,130.405 319.828 C 130.524 319.828,130.225 319.052,129.741 318.103 C 129.258 317.155,128.765 316.379,128.646 316.379 C 128.528 316.379,128.827 317.155,129.310 318.103 M122.845 334.354 C 122.726 343.884,122.777 351.534,122.958 351.353 C 123.138 351.172,123.235 343.375,123.173 334.025 L 123.060 317.026 122.845 334.354 M219.016 319.878 C 218.517 321.355,218.184 322.638,218.274 322.728 C 218.365 322.819,218.847 321.685,219.346 320.208 C 219.845 318.731,220.178 317.449,220.088 317.358 C 219.997 317.267,219.515 318.401,219.016 319.878 M226.325 317.672 C 226.324 318.294,227.540 320.761,227.571 320.200 C 227.579 320.050,227.303 319.274,226.957 318.476 C 226.610 317.679,226.326 317.317,226.325 317.672 M269.612 321.552 C 269.612 323.403,269.755 324.694,269.929 324.420 C 270.103 324.146,270.245 322.856,270.245 321.552 C 270.245 320.248,270.103 318.957,269.929 318.683 C 269.755 318.410,269.612 319.700,269.612 321.552 M131.487 322.025 C 131.982 322.996,132.479 323.699,132.591 323.587 C 132.800 323.378,131.092 320.259,130.768 320.259 C 130.668 320.259,130.991 321.053,131.487 322.025 M227.638 321.121 C 227.631 321.476,227.892 322.349,228.217 323.060 C 228.979 324.725,228.991 323.951,228.233 321.983 C 227.913 321.153,227.646 320.765,227.638 321.121 M286.793 322.552 C 287.544 324.348,288.753 326.597,288.776 326.239 C 288.805 325.780,286.662 321.121,286.422 321.121 C 286.297 321.121,286.464 321.765,286.793 322.552 M217.339 324.677 C 216.605 326.706,216.707 327.256,217.485 325.464 C 217.837 324.652,218.067 323.814,217.996 323.601 C 217.926 323.389,217.630 323.873,217.339 324.677 M133.858 326.336 C 134.471 327.545,135.059 328.447,135.165 328.341 C 135.370 328.136,133.245 324.138,132.930 324.138 C 132.828 324.138,133.245 325.127,133.858 326.336 M229.126 325.431 C 229.285 326.024,229.594 326.800,229.814 327.155 C 230.092 327.605,230.126 327.473,229.925 326.724 C 229.767 326.131,229.457 325.356,229.238 325.000 C 228.960 324.551,228.926 324.682,229.126 325.431 M288.808 326.961 C 288.817 327.186,289.116 327.856,289.473 328.448 L 290.122 329.526 289.840 328.448 C 289.546 327.324,288.781 326.221,288.808 326.961 M215.998 328.491 C 215.734 329.249,215.531 330.084,215.548 330.344 C 215.564 330.605,215.856 330.060,216.196 329.132 C 216.536 328.205,216.738 327.371,216.646 327.279 C 216.554 327.186,216.263 327.732,215.998 328.491 M230.186 328.448 C 230.186 328.804,230.374 329.386,230.603 329.741 C 230.975 330.316,231.021 330.316,231.021 329.741 C 231.021 329.386,230.833 328.804,230.603 328.448 C 230.232 327.874,230.186 327.874,230.186 328.448 M136.228 330.645 C 136.724 331.616,137.220 332.320,137.332 332.208 C 137.541 331.999,135.833 328.879,135.509 328.879 C 135.409 328.879,135.733 329.674,136.228 330.645 M231.284 331.466 C 231.699 333.030,232.302 334.055,232.299 333.190 C 232.298 332.834,232.005 332.058,231.648 331.466 L 230.999 330.388 231.284 331.466 M214.731 332.296 C 214.016 334.347,214.132 334.989,214.898 333.222 C 215.251 332.410,215.471 331.543,215.388 331.294 C 215.305 331.045,215.010 331.496,214.731 332.296 M263.362 332.462 C 263.362 332.537,263.992 333.167,264.763 333.863 L 266.164 335.129 264.898 333.728 C 263.718 332.423,263.362 332.129,263.362 332.462 M138.147 334.052 C 138.514 334.763,138.912 335.345,139.031 335.345 C 139.149 335.345,138.945 334.763,138.578 334.052 C 138.210 333.341,137.812 332.759,137.693 332.759 C 137.575 332.759,137.779 333.341,138.147 334.052 M250.640 333.728 C 250.311 334.640,250.196 351.703,250.521 351.376 C 250.802 351.094,251.231 333.188,250.956 333.189 C 250.890 333.189,250.747 333.432,250.640 333.728 M232.360 334.483 C 232.358 335.104,233.574 337.571,233.605 337.011 C 233.614 336.860,233.337 336.084,232.991 335.287 C 232.645 334.489,232.361 334.127,232.360 334.483 M213.578 335.776 C 213.416 336.286,213.380 336.800,213.499 336.918 C 213.617 337.037,213.847 336.717,214.009 336.207 C 214.170 335.697,214.206 335.183,214.087 335.064 C 213.969 334.946,213.739 335.266,213.578 335.776 M266.364 336.178 C 266.609 336.636,267.009 337.536,267.253 338.177 C 267.497 338.819,267.802 339.239,267.930 339.110 C 268.181 338.859,266.510 335.345,266.140 335.345 C 266.018 335.345,266.119 335.720,266.364 336.178 M293.102 343.622 C 292.984 348.055,293.038 351.532,293.221 351.348 C 293.405 351.165,293.501 347.537,293.436 343.287 L 293.317 335.560 293.102 343.622 M140.093 337.539 C 140.089 337.679,140.665 338.843,141.372 340.125 C 142.786 342.692,143.180 342.736,141.827 340.177 C 140.829 338.290,140.102 337.183,140.093 337.539 M233.656 337.774 C 233.636 338.043,233.904 338.916,234.250 339.713 C 234.597 340.511,234.879 340.873,234.877 340.517 C 234.874 339.721,233.704 337.094,233.656 337.774 M81.502 338.837 C 81.467 339.916,82.292 342.853,82.556 342.587 C 82.627 342.515,82.427 341.390,82.112 340.086 C 81.768 338.662,81.524 338.163,81.502 338.837 M106.566 339.655 C 106.566 340.485,106.654 340.824,106.763 340.409 C 106.871 339.995,106.871 339.316,106.763 338.901 C 106.654 338.486,106.566 338.825,106.566 339.655 M268.349 340.517 C 268.504 341.110,268.804 341.779,269.014 342.004 C 269.629 342.663,269.440 341.718,268.717 340.517 L 268.067 339.440 268.349 340.517 M211.378 342.497 C 211.022 343.349,210.790 344.224,210.863 344.442 C 210.935 344.659,211.309 343.962,211.694 342.893 C 212.527 340.577,212.299 340.292,211.378 342.497 M269.644 343.534 C 269.802 344.127,270.112 344.903,270.331 345.259 C 270.609 345.708,270.643 345.576,270.443 344.828 C 270.284 344.235,269.975 343.459,269.755 343.103 C 269.477 342.654,269.443 342.786,269.644 343.534 M82.759 343.364 C 82.759 343.602,83.486 344.465,84.374 345.282 L 85.990 346.767 84.701 345.259 C 83.992 344.429,83.265 343.566,83.085 343.341 C 82.882 343.086,82.759 343.095,82.759 343.364 M105.172 344.265 C 105.172 344.508,104.664 345.457,104.043 346.372 C 103.421 347.288,103.240 347.766,103.640 347.434 C 104.547 346.681,105.752 344.402,105.420 344.069 C 105.284 343.933,105.172 344.021,105.172 344.265 M236.235 345.259 C 236.236 345.614,236.530 346.390,236.887 346.983 L 237.536 348.060 237.250 346.983 C 236.836 345.419,236.232 344.394,236.235 345.259 M209.962 346.600 C 209.335 348.399,209.634 348.698,210.345 346.983 C 210.646 346.256,210.791 345.561,210.668 345.438 C 210.545 345.315,210.227 345.838,209.962 346.600 M270.705 346.179 C 270.697 346.330,270.973 347.105,271.319 347.903 C 271.666 348.701,271.950 349.063,271.951 348.707 C 271.952 348.086,270.736 345.618,270.705 346.179 M237.513 348.707 C 237.513 349.063,237.701 349.644,237.931 350.000 C 238.302 350.575,238.349 350.575,238.349 350.000 C 238.349 349.644,238.161 349.063,237.931 348.707 C 237.560 348.132,237.513 348.132,237.513 348.707 M208.513 350.323 L 207.795 351.940 208.639 350.922 C 209.349 350.065,209.790 348.707,209.357 348.707 C 209.288 348.707,208.908 349.434,208.513 350.323 M271.996 350.625 C 271.986 351.552,272.112 351.768,272.458 351.421 C 272.799 351.080,272.803 350.720,272.472 350.149 C 272.066 349.452,272.007 349.510,271.996 350.625 M113.074 395.151 C 159.737 395.211,235.965 395.211,282.470 395.151 C 328.976 395.090,290.797 395.041,197.629 395.041 C 104.461 395.041,66.411 395.090,113.074 395.151 " stroke="none" fill="#f44336" fill-rule="evenodd"></path></g></svg>